<svg width="24" height="24" viewBox="0 0 24 24" fill="none" xmlns="http://www.w3.org/2000/svg">
<path d="M6.00002 17H18M17 21C17.2652 21 17.5196 20.8947 17.7071 20.7071C17.8947 20.5196 18 20.2652 18 20V14.65C18 14.193 18.316 13.806 18.727 13.609C19.578 13.2031 20.2582 12.5096 20.6476 11.6509C21.0371 10.7923 21.1107 9.82363 20.8554 8.91599C20.6002 8.00835 20.0326 7.22003 19.2527 6.69017C18.4728 6.16032 17.5309 5.92297 16.593 6.02003C16.2068 5.12224 15.5659 4.35732 14.7496 3.81987C13.9333 3.28241 12.9774 2.99597 12 2.99597C11.0227 2.99597 10.0668 3.28241 9.25045 3.81987C8.43415 4.35732 7.79326 5.12224 7.40702 6.02003C6.4696 5.92365 5.52826 6.16133 4.74895 6.69117C3.96965 7.221 3.40243 8.00896 3.14731 8.91613C2.89218 9.8233 2.96553 10.7914 3.35443 11.6498C3.74332 12.5082 4.42278 13.2017 5.27302 13.608C5.68402 13.806 6.00002 14.193 6.00002 14.649V20C6.00002 20.2652 6.10538 20.5196 6.29291 20.7071C6.48045 20.8947 6.7348 21 7.00002 21H17Z" stroke="#D3C5B6" stroke-width="2" stroke-linecap="round" stroke-linejoin="round"/>
</svg>
