<svg width="22" height="22" viewBox="0 0 22 22" fill="none" xmlns="http://www.w3.org/2000/svg">
<g clip-path="url(#clip0_100_4257)">
<path d="M9.83872 4.65292C11.974 4.39846 14.1339 4.84984 15.9885 5.93813C17.8432 7.02642 19.2907 8.69182 20.11 10.68C20.1864 10.8858 20.1864 11.1122 20.11 11.318C19.7731 12.1347 19.3279 12.9025 18.7863 13.6005M12.9105 12.9781C12.3918 13.479 11.6972 13.7562 10.9761 13.7499C10.2551 13.7437 9.56534 13.4545 9.05547 12.9446C8.5456 12.4347 8.25638 11.745 8.25012 11.0239C8.24385 10.3029 8.52104 9.60824 9.02197 9.08959M16.0226 16.0407C14.8066 16.761 13.4499 17.2113 12.0446 17.361C10.6392 17.5108 9.21809 17.3565 7.87763 16.9086C6.53717 16.4608 5.30873 15.7298 4.27566 14.7654C3.2426 13.8009 2.42908 12.6255 1.8903 11.3189C1.81391 11.1131 1.81391 10.8867 1.8903 10.6809C2.70305 8.70995 4.13309 7.05573 5.9658 5.9665M1.83347 1.83325L20.1668 20.1666" stroke="#B0ADA8" stroke-width="2" stroke-linecap="round" stroke-linejoin="round"/>
</g>
<defs>
<clipPath id="clip0_100_4257">
<rect width="22" height="22" fill="white"/>
</clipPath>
</defs>
</svg>
