<svg width="22" height="22" viewBox="0 0 22 22" fill="none" xmlns="http://www.w3.org/2000/svg">
<path d="M1.8903 10.6811C1.81391 10.8869 1.81391 11.1133 1.8903 11.3191C2.63436 13.1232 3.89736 14.6658 5.51918 15.7513C7.14099 16.8367 9.04859 17.4162 11.0001 17.4162C12.9517 17.4162 14.8593 16.8367 16.4811 15.7513C18.1029 14.6658 19.3659 13.1232 20.11 11.3191C20.1864 11.1133 20.1864 10.8869 20.11 10.6811C19.3659 8.87695 18.1029 7.33437 16.4811 6.24891C14.8593 5.16345 12.9517 4.58398 11.0001 4.58398C9.04859 4.58398 7.14099 5.16345 5.51918 6.24891C3.89736 7.33437 2.63436 8.87695 1.8903 10.6811Z" stroke="#80776E" stroke-width="2" stroke-linecap="round" stroke-linejoin="round"/>
<path d="M11.0001 13.7501C12.5189 13.7501 13.7501 12.5189 13.7501 11.0001C13.7501 9.4813 12.5189 8.25009 11.0001 8.25009C9.48135 8.25009 8.25014 9.4813 8.25014 11.0001C8.25014 12.5189 9.48135 13.7501 11.0001 13.7501Z" stroke="#80776E" stroke-width="2" stroke-linecap="round" stroke-linejoin="round"/>
</svg>
