<svg width="20" height="20" viewBox="0 0 20 20" fill="none" xmlns="http://www.w3.org/2000/svg">
<path d="M1.55887 1.06205C1.2027 1.60529 1.11489 2.2726 1.2525 3.04322C1.41656 3.96221 1.91305 4.99783 2.63063 5.97291C4.06586 7.92311 6.38258 9.60893 8.44363 9.86451L8.5877 9.88287L8.68047 9.99397L16.2646 19.1492C17.0206 19.3299 17.5087 19.2174 17.7625 18.966C18.0182 18.7128 18.1361 18.2237 17.9467 17.4475L1.55895 1.06201L1.55887 1.06205ZM16.2098 1.15236L11.9715 5.39064C11.5028 5.85932 11.4987 6.37502 11.7407 6.9385L11.8409 7.1717L11.6577 7.34748L10.2344 8.70486L11.3904 9.86084L12.7418 8.43381L12.9175 8.24826L13.1507 8.34959C13.743 8.60486 14.3048 8.59439 14.74 8.15916L18.9783 3.92088L18.4278 3.37033L15.6714 6.12549L15.1563 5.6092L17.9114 2.85412L17.3243 2.26682L14.5692 5.02197L14.0528 4.50564L16.8079 1.75057L16.2098 1.15236ZM8.23973 10.6079L0.997307 17.5183C0.818596 18.2586 0.933088 18.721 1.17434 18.9599C1.41567 19.1989 1.88246 19.3087 2.61356 19.132L9.37996 11.9849L8.23973 10.6079Z" fill="#3A2719"/>
</svg>
