<svg width="20" height="20" viewBox="0 0 20 20" fill="none" xmlns="http://www.w3.org/2000/svg">
<path d="M1.66663 7.91662C1.66664 6.98929 1.94795 6.08377 2.4734 5.31967C2.99885 4.55557 3.74372 3.96883 4.60963 3.63695C5.47554 3.30507 6.42176 3.24366 7.3233 3.46082C8.22485 3.67799 9.03931 4.16352 9.65913 4.85329C9.70278 4.89996 9.75556 4.93718 9.81419 4.96262C9.87282 4.98806 9.93605 5.00119 9.99996 5.00119C10.0639 5.00119 10.1271 4.98806 10.1857 4.96262C10.2444 4.93718 10.2971 4.89996 10.3408 4.85329C10.9587 4.15904 11.7733 3.66943 12.6763 3.44962C13.5793 3.22982 14.5279 3.29024 15.3957 3.62285C16.2635 3.95547 17.0094 4.5445 17.5342 5.31154C18.059 6.07858 18.3377 6.98725 18.3333 7.91662C18.3333 9.82495 17.0833 11.25 15.8333 12.5L11.2566 16.9275C11.1013 17.1058 10.9099 17.249 10.695 17.3477C10.4801 17.4464 10.2467 17.4982 10.0102 17.4997C9.77374 17.5012 9.53967 17.4523 9.32353 17.3564C9.1074 17.2605 8.91415 17.1196 8.75663 16.9433L4.16663 12.5C2.91663 11.25 1.66663 9.83329 1.66663 7.91662Z" stroke="#B0ADA8" stroke-width="2" stroke-linecap="round" stroke-linejoin="round"/>
</svg>
