<svg width="20" height="20" viewBox="0 0 20 20" fill="none" xmlns="http://www.w3.org/2000/svg">
<g clip-path="url(#clip0_53_2010)">
<path d="M18.3333 10.0001C18.3333 11.6483 17.8446 13.2594 16.9289 14.6298C16.0132 16.0002 14.7117 17.0683 13.189 17.6991C11.6663 18.3298 9.99075 18.4948 8.37424 18.1733C6.75773 17.8517 5.27287 17.0581 4.10744 15.8926C2.942 14.7272 2.14833 13.2423 1.82678 11.6258C1.50524 10.0093 1.67027 8.33377 2.301 6.81105C2.93173 5.28834 3.99983 3.98685 5.37024 3.07117C6.74065 2.15549 8.35182 1.66675 9.99999 1.66675M18.3333 1.66675L9.99999 10.0001M18.3333 6.66675V1.66675H13.3333" stroke="#D3C5B6" stroke-width="2" stroke-linecap="round" stroke-linejoin="round"/>
</g>
<defs>
<clipPath id="clip0_53_2010">
<rect width="20" height="20" fill="white"/>
</clipPath>
</defs>
</svg>
