<svg width="240" height="190" viewBox="0 0 240 190" fill="none" xmlns="http://www.w3.org/2000/svg">
<path d="M171.993 81.4638L162.518 90.9333C162.161 91.2907 161.677 91.494 161.172 91.5H140.983L125.483 76L140.983 60.5H161.172C161.684 60.5009 162.175 60.7047 162.538 61.0667L172.012 70.5363C173.453 71.9909 174.26 73.9566 174.256 76.004C174.253 78.0514 173.439 80.0143 171.993 81.4638ZM90.4773 52.75H100.625C101.651 52.7505 102.636 53.1581 103.362 53.8834L120 70.5169L136.638 53.8834C137.364 53.1581 138.349 52.7505 139.375 52.75H149.547C149.93 52.7503 150.305 52.6368 150.624 52.424C150.943 52.2111 151.192 51.9084 151.338 51.5542C151.485 51.1999 151.523 50.8101 151.449 50.4341C151.374 50.0581 151.189 49.7127 150.918 49.4417L125.488 24.0072C124.036 22.5637 122.072 21.7535 120.024 21.7535C117.977 21.7535 116.013 22.5637 114.56 24.0072L89.1066 49.4417C88.8353 49.7127 88.6505 50.0581 88.5756 50.4341C88.5007 50.8101 88.5391 51.1999 88.6859 51.5542C88.8327 51.9084 89.0812 52.2111 89.4001 52.424C89.719 52.6368 90.0939 52.7503 90.4773 52.75ZM149.547 99.25H139.375C138.349 99.2495 137.364 98.8419 136.638 98.1166L120 81.4783L103.362 98.1166C102.636 98.8419 101.651 99.2495 100.625 99.25H90.4531C90.0697 99.2497 89.6948 99.3632 89.3759 99.576C89.057 99.7889 88.8084 100.092 88.6617 100.446C88.5149 100.8 88.4765 101.19 88.5514 101.566C88.6263 101.942 88.8111 102.287 89.0823 102.558L114.512 127.993C115.964 129.436 117.928 130.246 119.976 130.246C122.023 130.246 123.987 129.436 125.44 127.993L150.869 102.558C151.138 102.29 151.322 101.949 151.398 101.578C151.475 101.206 151.44 100.82 151.3 100.468C151.159 100.116 150.918 99.8123 150.606 99.5958C150.294 99.3793 149.926 99.2591 149.547 99.25ZM114.546 76L99.0459 60.5H78.8281C78.3158 60.5009 77.8247 60.7047 77.4622 61.0667L68.0072 70.5363C66.5637 71.9883 65.7535 73.9526 65.7535 76C65.7535 78.0474 66.5637 80.0117 68.0072 81.4638L77.4816 90.9333C77.8393 91.2907 78.3225 91.494 78.8281 91.5H99.0169L114.546 76Z" fill="#CCC2BC"/>
<path d="M63.732 171.264C62.6173 171.264 61.6273 171.066 60.762 170.67C59.8967 170.274 59.222 169.709 58.738 168.976C58.254 168.243 58.0047 167.37 57.99 166.358H60.784C60.784 166.871 60.9013 167.333 61.136 167.744C61.3853 168.14 61.7227 168.455 62.148 168.69C62.588 168.925 63.116 169.042 63.732 169.042C64.26 169.042 64.7147 168.961 65.096 168.8C65.492 168.624 65.7927 168.382 65.998 168.074C66.218 167.751 66.328 167.377 66.328 166.952C66.328 166.468 66.2107 166.072 65.976 165.764C65.756 165.441 65.448 165.17 65.052 164.95C64.656 164.73 64.2013 164.539 63.688 164.378C63.1747 164.202 62.632 164.019 62.06 163.828C60.8427 163.417 59.926 162.897 59.31 162.266C58.694 161.621 58.386 160.763 58.386 159.692C58.386 158.797 58.5987 158.027 59.024 157.382C59.4493 156.737 60.0433 156.238 60.806 155.886C61.5833 155.519 62.478 155.336 63.49 155.336C64.5167 155.336 65.4113 155.519 66.174 155.886C66.9513 156.253 67.56 156.766 68 157.426C68.4547 158.071 68.6893 158.849 68.704 159.758H65.888C65.8733 159.377 65.7707 159.025 65.58 158.702C65.3893 158.365 65.1107 158.093 64.744 157.888C64.392 157.668 63.9593 157.558 63.446 157.558C63.006 157.543 62.61 157.617 62.258 157.778C61.9207 157.925 61.6493 158.145 61.444 158.438C61.2533 158.717 61.158 159.069 61.158 159.494C61.158 159.905 61.246 160.249 61.422 160.528C61.6127 160.792 61.884 161.019 62.236 161.21C62.588 161.386 62.9987 161.555 63.468 161.716C63.9373 161.877 64.4507 162.053 65.008 162.244C65.7707 162.493 66.46 162.801 67.076 163.168C67.7067 163.52 68.2053 163.982 68.572 164.554C68.9387 165.126 69.122 165.867 69.122 166.776C69.122 167.568 68.9167 168.309 68.506 168.998C68.0953 169.673 67.494 170.223 66.702 170.648C65.91 171.059 64.92 171.264 63.732 171.264ZM71.601 175.84V159.912H73.955L74.241 161.518C74.4756 161.195 74.7543 160.895 75.077 160.616C75.4143 160.323 75.8176 160.088 76.287 159.912C76.771 159.736 77.321 159.648 77.937 159.648C78.9783 159.648 79.895 159.905 80.687 160.418C81.4936 160.931 82.1243 161.628 82.579 162.508C83.0336 163.373 83.261 164.363 83.261 165.478C83.261 166.593 83.0263 167.59 82.557 168.47C82.1023 169.335 81.4716 170.017 80.665 170.516C79.873 171.015 78.9636 171.264 77.937 171.264C77.101 171.264 76.3676 171.11 75.737 170.802C75.121 170.479 74.6223 170.025 74.241 169.438V175.84H71.601ZM77.387 168.976C78.003 168.976 78.553 168.829 79.037 168.536C79.521 168.243 79.895 167.832 80.159 167.304C80.4376 166.776 80.577 166.167 80.577 165.478C80.577 164.774 80.4376 164.158 80.159 163.63C79.895 163.102 79.521 162.691 79.037 162.398C78.553 162.105 78.003 161.958 77.387 161.958C76.7563 161.958 76.199 162.105 75.715 162.398C75.2456 162.691 74.8716 163.102 74.593 163.63C74.329 164.158 74.197 164.767 74.197 165.456C74.197 166.16 74.329 166.776 74.593 167.304C74.8716 167.817 75.2456 168.228 75.715 168.536C76.199 168.829 76.7563 168.976 77.387 168.976ZM91.0156 171.264C89.9156 171.264 88.9476 171.029 88.1116 170.56C87.2756 170.076 86.6229 169.401 86.1536 168.536C85.6843 167.671 85.4496 166.673 85.4496 165.544C85.4496 164.371 85.6769 163.344 86.1316 162.464C86.6009 161.584 87.2536 160.895 88.0896 160.396C88.9403 159.897 89.9229 159.648 91.0376 159.648C92.1229 159.648 93.0689 159.89 93.8756 160.374C94.6823 160.858 95.3056 161.511 95.7456 162.332C96.1856 163.139 96.4056 164.048 96.4056 165.06C96.4056 165.207 96.4056 165.368 96.4056 165.544C96.4056 165.72 96.3909 165.903 96.3616 166.094H87.3416V164.4H93.7436C93.7143 163.593 93.4429 162.963 92.9296 162.508C92.4163 162.039 91.7783 161.804 91.0156 161.804C90.4729 161.804 89.9743 161.929 89.5196 162.178C89.0649 162.427 88.7056 162.801 88.4416 163.3C88.1776 163.784 88.0456 164.4 88.0456 165.148V165.786C88.0456 166.475 88.1703 167.069 88.4196 167.568C88.6836 168.067 89.0356 168.448 89.4756 168.712C89.9303 168.961 90.4363 169.086 90.9936 169.086C91.6096 169.086 92.1156 168.954 92.5116 168.69C92.9223 168.426 93.2229 168.074 93.4136 167.634H96.0976C95.8923 168.323 95.5549 168.947 95.0856 169.504C94.6163 170.047 94.0369 170.479 93.3476 170.802C92.6583 171.11 91.8809 171.264 91.0156 171.264ZM104.101 171.264C103.016 171.264 102.04 171.022 101.175 170.538C100.324 170.039 99.6571 169.357 99.1731 168.492C98.7038 167.612 98.4691 166.615 98.4691 165.5C98.4691 164.341 98.7038 163.329 99.1731 162.464C99.6571 161.584 100.324 160.895 101.175 160.396C102.04 159.897 103.023 159.648 104.123 159.648C105.502 159.648 106.66 160.015 107.599 160.748C108.538 161.467 109.139 162.457 109.403 163.718H106.631C106.484 163.161 106.176 162.721 105.707 162.398C105.252 162.075 104.71 161.914 104.079 161.914C103.536 161.914 103.038 162.053 102.583 162.332C102.143 162.611 101.791 163.014 101.527 163.542C101.278 164.07 101.153 164.708 101.153 165.456C101.153 166.028 101.226 166.534 101.373 166.974C101.52 167.414 101.725 167.788 101.989 168.096C102.268 168.389 102.583 168.617 102.935 168.778C103.287 168.939 103.668 169.02 104.079 169.02C104.504 169.02 104.886 168.954 105.223 168.822C105.575 168.675 105.868 168.463 106.103 168.184C106.352 167.905 106.528 167.575 106.631 167.194H109.403C109.139 168.426 108.538 169.416 107.599 170.164C106.66 170.897 105.494 171.264 104.101 171.264ZM116.595 171C115.847 171 115.194 170.883 114.637 170.648C114.094 170.413 113.669 170.025 113.361 169.482C113.053 168.939 112.899 168.206 112.899 167.282V162.134H111.007V159.912H112.899L113.207 156.986H115.539V159.912H118.553V162.134H115.539V167.282C115.539 167.839 115.656 168.228 115.891 168.448C116.14 168.653 116.551 168.756 117.123 168.756H118.487V171H116.595ZM121.037 171V159.912H123.391L123.633 161.98C123.897 161.496 124.227 161.085 124.623 160.748C125.019 160.396 125.481 160.125 126.009 159.934C126.551 159.743 127.145 159.648 127.791 159.648V162.442H126.867C126.427 162.442 126.009 162.501 125.613 162.618C125.217 162.721 124.872 162.897 124.579 163.146C124.3 163.381 124.08 163.711 123.919 164.136C123.757 164.547 123.677 165.067 123.677 165.698V171H121.037ZM133.477 171.264C132.567 171.264 131.812 171.11 131.211 170.802C130.609 170.494 130.162 170.083 129.869 169.57C129.575 169.057 129.429 168.499 129.429 167.898C129.429 167.194 129.605 166.585 129.957 166.072C130.323 165.559 130.859 165.163 131.563 164.884C132.267 164.591 133.132 164.444 134.159 164.444H136.953C136.953 163.857 136.872 163.373 136.711 162.992C136.549 162.596 136.3 162.303 135.963 162.112C135.625 161.921 135.193 161.826 134.665 161.826C134.063 161.826 133.55 161.965 133.125 162.244C132.699 162.508 132.435 162.919 132.333 163.476H129.737C129.825 162.684 130.089 162.009 130.529 161.452C130.969 160.88 131.548 160.44 132.267 160.132C133 159.809 133.799 159.648 134.665 159.648C135.706 159.648 136.593 159.831 137.327 160.198C138.06 160.55 138.617 161.063 138.999 161.738C139.395 162.398 139.593 163.197 139.593 164.136V171H137.349L137.085 169.218C136.938 169.511 136.747 169.783 136.513 170.032C136.293 170.281 136.036 170.501 135.743 170.692C135.449 170.868 135.112 171.007 134.731 171.11C134.364 171.213 133.946 171.264 133.477 171.264ZM134.071 169.174C134.496 169.174 134.87 169.101 135.193 168.954C135.53 168.793 135.816 168.573 136.051 168.294C136.3 168.001 136.491 167.678 136.623 167.326C136.755 166.974 136.843 166.6 136.887 166.204V166.16H134.445C133.931 166.16 133.506 166.226 133.169 166.358C132.831 166.475 132.589 166.651 132.443 166.886C132.296 167.121 132.223 167.392 132.223 167.7C132.223 168.008 132.296 168.272 132.443 168.492C132.589 168.712 132.802 168.881 133.081 168.998C133.359 169.115 133.689 169.174 134.071 169.174ZM142.413 171V155.16H145.053V171H142.413ZM164.26 173.31L158.782 164.73H161.818L167.384 173.31H164.26ZM160.476 171.264C158.995 171.264 157.682 170.934 156.538 170.274C155.409 169.599 154.522 168.668 153.876 167.48C153.231 166.277 152.908 164.884 152.908 163.3C152.908 161.731 153.231 160.352 153.876 159.164C154.522 157.961 155.409 157.023 156.538 156.348C157.682 155.673 158.995 155.336 160.476 155.336C161.987 155.336 163.314 155.673 164.458 156.348C165.602 157.023 166.49 157.961 167.12 159.164C167.751 160.352 168.066 161.731 168.066 163.3C168.066 164.884 167.751 166.277 167.12 167.48C166.49 168.668 165.602 169.599 164.458 170.274C163.314 170.934 161.987 171.264 160.476 171.264ZM160.498 168.888C161.481 168.888 162.339 168.668 163.072 168.228C163.806 167.773 164.37 167.128 164.766 166.292C165.162 165.456 165.36 164.459 165.36 163.3C165.36 162.141 165.162 161.144 164.766 160.308C164.37 159.472 163.806 158.834 163.072 158.394C162.339 157.939 161.481 157.712 160.498 157.712C159.516 157.712 158.658 157.939 157.924 158.394C157.191 158.834 156.619 159.472 156.208 160.308C155.812 161.144 155.614 162.141 155.614 163.3C155.614 164.459 155.812 165.456 156.208 166.292C156.619 167.128 157.191 167.773 157.924 168.228C158.658 168.668 159.516 168.888 160.498 168.888ZM170.646 171V155.6H176.168C177.385 155.6 178.39 155.813 179.182 156.238C179.989 156.649 180.583 157.206 180.964 157.91C181.36 158.599 181.558 159.384 181.558 160.264C181.558 161.085 181.367 161.848 180.986 162.552C180.605 163.256 180.011 163.821 179.204 164.246C178.397 164.671 177.363 164.884 176.102 164.884H173.286V171H170.646ZM178.676 171L175.442 164.202H178.302L181.69 171H178.676ZM173.286 162.926H175.992C176.975 162.926 177.693 162.691 178.148 162.222C178.617 161.738 178.852 161.107 178.852 160.33C178.852 159.567 178.625 158.959 178.17 158.504C177.715 158.035 176.989 157.8 175.992 157.8H173.286V162.926Z" fill="#F8F3ED"/>
</svg>
