<svg width="240" height="162" viewBox="0 0 240 162" fill="none" xmlns="http://www.w3.org/2000/svg">
<path d="M171.993 67.4637L162.518 76.9333C162.161 77.2907 161.677 77.494 161.172 77.5H140.983L125.483 62L140.983 46.5H161.172C161.684 46.5009 162.175 46.7046 162.538 47.0667L172.012 56.5362C173.453 57.9909 174.26 59.9566 174.256 62.004C174.253 64.0514 173.439 66.0142 171.993 67.4637ZM90.4773 38.75H100.625C101.651 38.7505 102.636 39.1581 103.362 39.8834L120 56.5169L136.638 39.8834C137.364 39.1581 138.349 38.7505 139.375 38.75H149.547C149.93 38.7503 150.305 38.6368 150.624 38.424C150.943 38.2111 151.192 37.9084 151.338 37.5542C151.485 37.1999 151.523 36.8101 151.449 36.4341C151.374 36.0581 151.189 35.7127 150.918 35.4417L125.488 10.0072C124.036 8.56374 122.072 7.75354 120.024 7.75354C117.977 7.75354 116.013 8.56374 114.56 10.0072L89.1066 35.4417C88.8353 35.7127 88.6505 36.0581 88.5756 36.4341C88.5007 36.8101 88.5391 37.1999 88.6859 37.5542C88.8327 37.9084 89.0812 38.2111 89.4001 38.424C89.719 38.6368 90.0939 38.7503 90.4773 38.75ZM149.547 85.25H139.375C138.349 85.2495 137.364 84.8419 136.638 84.1166L120 67.4783L103.362 84.1166C102.636 84.8419 101.651 85.2495 100.625 85.25H90.4531C90.0697 85.2497 89.6948 85.3632 89.3759 85.576C89.057 85.7889 88.8084 86.0916 88.6617 86.4458C88.5149 86.8001 88.4765 87.1899 88.5514 87.5659C88.6263 87.9419 88.8111 88.2873 89.0823 88.5583L114.512 113.993C115.964 115.436 117.928 116.246 119.976 116.246C122.023 116.246 123.987 115.436 125.44 113.993L150.869 88.5583C151.138 88.2903 151.322 87.9493 151.398 87.5777C151.475 87.206 151.44 86.8201 151.3 86.4678C151.159 86.1155 150.918 85.8123 150.606 85.5958C150.294 85.3793 149.926 85.2591 149.547 85.25ZM114.546 62L99.0459 46.5H78.8281C78.3158 46.5009 77.8247 46.7046 77.4622 47.0667L68.0072 56.5362C66.5637 57.9883 65.7535 59.9526 65.7535 62C65.7535 64.0474 66.5637 66.0117 68.0072 67.4637L77.4816 76.9333C77.8393 77.2907 78.3225 77.494 78.8281 77.5H99.0169L114.546 62Z" fill="#CCC2BC"/>
<path d="M93.864 159.31L88.386 150.73H91.422L96.988 159.31H93.864ZM90.08 157.264C88.5987 157.264 87.286 156.934 86.142 156.274C85.0127 155.599 84.1253 154.668 83.48 153.48C82.8347 152.277 82.512 150.884 82.512 149.3C82.512 147.731 82.8347 146.352 83.48 145.164C84.1253 143.961 85.0127 143.023 86.142 142.348C87.286 141.673 88.5987 141.336 90.08 141.336C91.5907 141.336 92.918 141.673 94.062 142.348C95.206 143.023 96.0933 143.961 96.724 145.164C97.3547 146.352 97.67 147.731 97.67 149.3C97.67 150.884 97.3547 152.277 96.724 153.48C96.0933 154.668 95.206 155.599 94.062 156.274C92.918 156.934 91.5907 157.264 90.08 157.264ZM90.102 154.888C91.0847 154.888 91.9427 154.668 92.676 154.228C93.4093 153.773 93.974 153.128 94.37 152.292C94.766 151.456 94.964 150.459 94.964 149.3C94.964 148.141 94.766 147.144 94.37 146.308C93.974 145.472 93.4093 144.834 92.676 144.394C91.9427 143.939 91.0847 143.712 90.102 143.712C89.1193 143.712 88.2613 143.939 87.528 144.394C86.7947 144.834 86.2227 145.472 85.812 146.308C85.416 147.144 85.218 148.141 85.218 149.3C85.218 150.459 85.416 151.456 85.812 152.292C86.2227 153.128 86.7947 153.773 87.528 154.228C88.2613 154.668 89.1193 154.888 90.102 154.888ZM100.25 157V141.6H105.772C106.989 141.6 107.994 141.813 108.786 142.238C109.592 142.649 110.186 143.206 110.568 143.91C110.964 144.599 111.162 145.384 111.162 146.264C111.162 147.085 110.971 147.848 110.59 148.552C110.208 149.256 109.614 149.821 108.808 150.246C108.001 150.671 106.967 150.884 105.706 150.884H102.89V157H100.25ZM108.28 157L105.046 150.202H107.906L111.294 157H108.28ZM102.89 148.926H105.596C106.578 148.926 107.297 148.691 107.752 148.222C108.221 147.738 108.456 147.107 108.456 146.33C108.456 145.567 108.228 144.959 107.774 144.504C107.319 144.035 106.593 143.8 105.596 143.8H102.89V148.926ZM118.33 157.264C117.23 157.264 116.262 157.029 115.426 156.56C114.59 156.076 113.937 155.401 113.468 154.536C112.999 153.671 112.764 152.673 112.764 151.544C112.764 150.371 112.991 149.344 113.446 148.464C113.915 147.584 114.568 146.895 115.404 146.396C116.255 145.897 117.237 145.648 118.352 145.648C119.437 145.648 120.383 145.89 121.19 146.374C121.997 146.858 122.62 147.511 123.06 148.332C123.5 149.139 123.72 150.048 123.72 151.06C123.72 151.207 123.72 151.368 123.72 151.544C123.72 151.72 123.705 151.903 123.676 152.094H114.656V150.4H121.058C121.029 149.593 120.757 148.963 120.244 148.508C119.731 148.039 119.093 147.804 118.33 147.804C117.787 147.804 117.289 147.929 116.834 148.178C116.379 148.427 116.02 148.801 115.756 149.3C115.492 149.784 115.36 150.4 115.36 151.148V151.786C115.36 152.475 115.485 153.069 115.734 153.568C115.998 154.067 116.35 154.448 116.79 154.712C117.245 154.961 117.751 155.086 118.308 155.086C118.924 155.086 119.43 154.954 119.826 154.69C120.237 154.426 120.537 154.074 120.728 153.634H123.412C123.207 154.323 122.869 154.947 122.4 155.504C121.931 156.047 121.351 156.479 120.662 156.802C119.973 157.11 119.195 157.264 118.33 157.264ZM130.58 157.264C129.597 157.264 128.739 157.11 128.006 156.802C127.287 156.479 126.715 156.039 126.29 155.482C125.879 154.91 125.637 154.257 125.564 153.524H128.204C128.277 153.832 128.409 154.118 128.6 154.382C128.79 154.631 129.047 154.829 129.37 154.976C129.707 155.123 130.103 155.196 130.558 155.196C130.998 155.196 131.357 155.137 131.636 155.02C131.914 154.888 132.12 154.719 132.252 154.514C132.384 154.309 132.45 154.089 132.45 153.854C132.45 153.502 132.354 153.231 132.164 153.04C131.973 152.849 131.694 152.703 131.328 152.6C130.976 152.483 130.55 152.373 130.052 152.27C129.524 152.167 129.01 152.043 128.512 151.896C128.028 151.735 127.588 151.537 127.192 151.302C126.81 151.067 126.502 150.767 126.268 150.4C126.048 150.033 125.938 149.586 125.938 149.058C125.938 148.413 126.106 147.833 126.444 147.32C126.796 146.807 127.294 146.403 127.94 146.11C128.6 145.802 129.384 145.648 130.294 145.648C131.584 145.648 132.611 145.949 133.374 146.55C134.151 147.137 134.606 147.965 134.738 149.036H132.23C132.156 148.625 131.951 148.31 131.614 148.09C131.276 147.855 130.829 147.738 130.272 147.738C129.7 147.738 129.26 147.848 128.952 148.068C128.658 148.273 128.512 148.552 128.512 148.904C128.512 149.124 128.6 149.329 128.776 149.52C128.966 149.696 129.238 149.85 129.59 149.982C129.942 150.099 130.374 150.217 130.888 150.334C131.709 150.495 132.435 150.686 133.066 150.906C133.696 151.126 134.195 151.449 134.562 151.874C134.928 152.299 135.112 152.901 135.112 153.678C135.126 154.382 134.943 155.005 134.562 155.548C134.195 156.091 133.674 156.516 133 156.824C132.325 157.117 131.518 157.264 130.58 157.264ZM142.105 157C141.357 157 140.704 156.883 140.147 156.648C139.604 156.413 139.179 156.025 138.871 155.482C138.563 154.939 138.409 154.206 138.409 153.282V148.134H136.517V145.912H138.409L138.716 142.986H141.049V145.912H144.063V148.134H141.049V153.282C141.049 153.839 141.166 154.228 141.401 154.448C141.65 154.653 142.061 154.756 142.633 154.756H143.997V157H142.105ZM151.437 157.264C150.381 157.264 149.428 157.022 148.577 156.538C147.741 156.039 147.081 155.357 146.597 154.492C146.128 153.612 145.893 152.607 145.893 151.478C145.893 150.319 146.135 149.307 146.619 148.442C147.103 147.562 147.763 146.88 148.599 146.396C149.45 145.897 150.403 145.648 151.459 145.648C152.515 145.648 153.461 145.897 154.297 146.396C155.148 146.88 155.808 147.555 156.277 148.42C156.761 149.285 157.003 150.297 157.003 151.456C157.003 152.615 156.761 153.627 156.277 154.492C155.793 155.357 155.126 156.039 154.275 156.538C153.439 157.022 152.493 157.264 151.437 157.264ZM151.437 154.998C151.965 154.998 152.442 154.866 152.867 154.602C153.307 154.338 153.659 153.942 153.923 153.414C154.187 152.886 154.319 152.233 154.319 151.456C154.319 150.679 154.187 150.033 153.923 149.52C153.674 148.992 153.329 148.596 152.889 148.332C152.464 148.068 151.987 147.936 151.459 147.936C150.946 147.936 150.469 148.068 150.029 148.332C149.589 148.596 149.237 148.992 148.973 149.52C148.709 150.033 148.577 150.679 148.577 151.456C148.577 152.233 148.709 152.886 148.973 153.414C149.237 153.942 149.582 154.338 150.007 154.602C150.447 154.866 150.924 154.998 151.437 154.998Z" fill="#F8F3ED"/>
</svg>
