<svg width="240" height="240" viewBox="0 0 240 240" fill="none" xmlns="http://www.w3.org/2000/svg">
<mask id="mask0_32_1611" style="mask-type:luminance" maskUnits="userSpaceOnUse" x="0" y="0" width="240" height="240">
<path d="M240 0H0V240H240V0Z" fill="white"/>
</mask>
<g mask="url(#mask0_32_1611)">
<path d="M240 0H0V240H240V0Z" fill="white"/>
</g>
<mask id="mask1_32_1611" style="mask-type:luminance" maskUnits="userSpaceOnUse" x="5" y="5" width="230" height="230">
<path d="M55.6098 5.21738H50.0106V10.8165H55.6098V5.21738Z" fill="white"/>
<path d="M66.8081 5.21738H61.2089V10.8165H66.8081V5.21738Z" fill="white"/>
<path d="M72.4072 5.21738H66.8081V10.8165H72.4072V5.21738Z" fill="white"/>
<path d="M83.6055 5.21738H78.0064V10.8165H83.6055V5.21738Z" fill="white"/>
<path d="M94.8038 5.21738H89.2047V10.8165H94.8038V5.21738Z" fill="white"/>
<path d="M122.8 5.21738H117.2V10.8165H122.8V5.21738Z" fill="white"/>
<path d="M128.399 5.21738H122.8V10.8165H128.399V5.21738Z" fill="white"/>
<path d="M139.597 5.21738H133.998V10.8165H139.597V5.21738Z" fill="white"/>
<path d="M145.196 5.21738H139.597V10.8165H145.196V5.21738Z" fill="white"/>
<path d="M161.994 5.21738H156.394V10.8165H161.994V5.21738Z" fill="white"/>
<path d="M167.593 5.21738H161.994V10.8165H167.593V5.21738Z" fill="white"/>
<path d="M184.39 5.21738H178.791V10.8165H184.39V5.21738Z" fill="white"/>
<path d="M61.2089 10.8165H55.6098V16.4157H61.2089V10.8165Z" fill="white"/>
<path d="M83.6055 10.8165H78.0064V16.4157H83.6055V10.8165Z" fill="white"/>
<path d="M94.8038 10.8165H89.2047V16.4157H94.8038V10.8165Z" fill="white"/>
<path d="M128.399 10.8165H122.8V16.4157H128.399V10.8165Z" fill="white"/>
<path d="M133.998 10.8165H128.399V16.4157H133.998V10.8165Z" fill="white"/>
<path d="M145.196 10.8165H139.597V16.4157H145.196V10.8165Z" fill="white"/>
<path d="M150.795 10.8165H145.196V16.4157H150.795V10.8165Z" fill="white"/>
<path d="M156.394 10.8165H150.795V16.4157H156.394V10.8165Z" fill="white"/>
<path d="M161.994 10.8165H156.394V16.4157H161.994V10.8165Z" fill="white"/>
<path d="M189.989 10.8165H184.39V16.4157H189.989V10.8165Z" fill="white"/>
<path d="M55.6098 16.4157H50.0106V22.0148H55.6098V16.4157Z" fill="white"/>
<path d="M61.2089 16.4157H55.6098V22.0148H61.2089V16.4157Z" fill="white"/>
<path d="M66.8081 16.4157H61.2089V22.0148H66.8081V16.4157Z" fill="white"/>
<path d="M100.403 16.4157H94.8038V22.0148H100.403V16.4157Z" fill="white"/>
<path d="M106.002 16.4157H100.403V22.0148H106.002V16.4157Z" fill="white"/>
<path d="M111.601 16.4157H106.002V22.0148H111.601V16.4157Z" fill="white"/>
<path d="M117.2 16.4157H111.601V22.0148H117.2V16.4157Z" fill="white"/>
<path d="M122.8 16.4157H117.2V22.0148H122.8V16.4157Z" fill="white"/>
<path d="M133.998 16.4157H128.399V22.0148H133.998V16.4157Z" fill="white"/>
<path d="M139.597 16.4157H133.998V22.0148H139.597V16.4157Z" fill="white"/>
<path d="M156.394 16.4157H150.795V22.0148H156.394V16.4157Z" fill="white"/>
<path d="M167.593 16.4157H161.994V22.0148H167.593V16.4157Z" fill="white"/>
<path d="M173.192 16.4157H167.593V22.0148H173.192V16.4157Z" fill="white"/>
<path d="M184.39 16.4157H178.791V22.0148H184.39V16.4157Z" fill="white"/>
<path d="M189.989 16.4157H184.39V22.0148H189.989V16.4157Z" fill="white"/>
<path d="M55.6098 22.0148H50.0106V27.614H55.6098V22.0148Z" fill="white"/>
<path d="M61.2089 22.0148H55.6098V27.614H61.2089V22.0148Z" fill="white"/>
<path d="M78.0064 22.0148H72.4072V27.614H78.0064V22.0148Z" fill="white"/>
<path d="M94.8038 22.0148H89.2047V27.614H94.8038V22.0148Z" fill="white"/>
<path d="M100.403 22.0148H94.8038V27.614H100.403V22.0148Z" fill="white"/>
<path d="M106.002 22.0148H100.403V27.614H106.002V22.0148Z" fill="white"/>
<path d="M122.8 22.0148H117.2V27.614H122.8V22.0148Z" fill="white"/>
<path d="M133.998 22.0148H128.399V27.614H133.998V22.0148Z" fill="white"/>
<path d="M161.994 22.0148H156.394V27.614H161.994V22.0148Z" fill="white"/>
<path d="M167.593 22.0148H161.994V27.614H167.593V22.0148Z" fill="white"/>
<path d="M178.791 22.0148H173.192V27.614H178.791V22.0148Z" fill="white"/>
<path d="M61.2089 27.614H55.6098V33.2131H61.2089V27.614Z" fill="white"/>
<path d="M66.8081 27.614H61.2089V33.2131H66.8081V27.614Z" fill="white"/>
<path d="M72.4072 27.614H66.8081V33.2131H72.4072V27.614Z" fill="white"/>
<path d="M78.0064 27.614H72.4072V33.2131H78.0064V27.614Z" fill="white"/>
<path d="M94.8038 27.614H89.2047V33.2131H94.8038V27.614Z" fill="white"/>
<path d="M100.403 27.614H94.8038V33.2131H100.403V27.614Z" fill="white"/>
<path d="M111.601 27.614H106.002V33.2131H111.601V27.614Z" fill="white"/>
<path d="M133.998 27.614H128.399V33.2131H133.998V27.614Z" fill="white"/>
<path d="M139.597 27.614H133.998V33.2131H139.597V27.614Z" fill="white"/>
<path d="M150.795 27.614H145.196V33.2131H150.795V27.614Z" fill="white"/>
<path d="M156.394 27.614H150.795V33.2131H156.394V27.614Z" fill="white"/>
<path d="M161.994 27.614H156.394V33.2131H161.994V27.614Z" fill="white"/>
<path d="M167.593 27.614H161.994V33.2131H167.593V27.614Z" fill="white"/>
<path d="M178.791 27.614H173.192V33.2131H178.791V27.614Z" fill="white"/>
<path d="M55.6098 33.2131H50.0106V38.8123H55.6098V33.2131Z" fill="white"/>
<path d="M78.0064 33.2131H72.4072V38.8123H78.0064V33.2131Z" fill="white"/>
<path d="M89.2047 33.2131H83.6055V38.8123H89.2047V33.2131Z" fill="white"/>
<path d="M94.8038 33.2131H89.2047V38.8123H94.8038V33.2131Z" fill="white"/>
<path d="M100.403 33.2131H94.8038V38.8123H100.403V33.2131Z" fill="white"/>
<path d="M111.601 33.2131H106.002V38.8123H111.601V33.2131Z" fill="white"/>
<path d="M122.8 33.2131H117.2V38.8123H122.8V33.2131Z" fill="white"/>
<path d="M128.399 33.2131H122.8V38.8123H128.399V33.2131Z" fill="white"/>
<path d="M139.597 33.2131H133.998V38.8123H139.597V33.2131Z" fill="white"/>
<path d="M145.196 33.2131H139.597V38.8123H145.196V33.2131Z" fill="white"/>
<path d="M150.795 33.2131H145.196V38.8123H150.795V33.2131Z" fill="white"/>
<path d="M161.994 33.2131H156.394V38.8123H161.994V33.2131Z" fill="white"/>
<path d="M167.593 33.2131H161.994V38.8123H167.593V33.2131Z" fill="white"/>
<path d="M184.39 33.2131H178.791V38.8123H184.39V33.2131Z" fill="white"/>
<path d="M55.6098 38.8123H50.0106V44.4114H55.6098V38.8123Z" fill="white"/>
<path d="M66.8081 38.8123H61.2089V44.4114H66.8081V38.8123Z" fill="white"/>
<path d="M78.0064 38.8123H72.4072V44.4114H78.0064V38.8123Z" fill="white"/>
<path d="M89.2047 38.8123H83.6055V44.4114H89.2047V38.8123Z" fill="white"/>
<path d="M100.403 38.8123H94.8038V44.4114H100.403V38.8123Z" fill="white"/>
<path d="M111.601 38.8123H106.002V44.4114H111.601V38.8123Z" fill="white"/>
<path d="M122.8 38.8123H117.2V44.4114H122.8V38.8123Z" fill="white"/>
<path d="M133.998 38.8123H128.399V44.4114H133.998V38.8123Z" fill="white"/>
<path d="M145.196 38.8123H139.597V44.4114H145.196V38.8123Z" fill="white"/>
<path d="M156.394 38.8123H150.795V44.4114H156.394V38.8123Z" fill="white"/>
<path d="M167.593 38.8123H161.994V44.4114H167.593V38.8123Z" fill="white"/>
<path d="M178.791 38.8123H173.192V44.4114H178.791V38.8123Z" fill="white"/>
<path d="M189.989 38.8123H184.39V44.4114H189.989V38.8123Z" fill="white"/>
<path d="M55.6098 44.4114H50.0106V50.0106H55.6098V44.4114Z" fill="white"/>
<path d="M72.4072 44.4114H66.8081V50.0106H72.4072V44.4114Z" fill="white"/>
<path d="M78.0064 44.4114H72.4072V50.0106H78.0064V44.4114Z" fill="white"/>
<path d="M89.2047 44.4114H83.6055V50.0106H89.2047V44.4114Z" fill="white"/>
<path d="M100.403 44.4114H94.8038V50.0106H100.403V44.4114Z" fill="white"/>
<path d="M111.601 44.4114H106.002V50.0106H111.601V44.4114Z" fill="white"/>
<path d="M122.8 44.4114H117.2V50.0106H122.8V44.4114Z" fill="white"/>
<path d="M128.399 44.4114H122.8V50.0106H128.399V44.4114Z" fill="white"/>
<path d="M133.998 44.4114H128.399V50.0106H133.998V44.4114Z" fill="white"/>
<path d="M145.196 44.4114H139.597V50.0106H145.196V44.4114Z" fill="white"/>
<path d="M156.394 44.4114H150.795V50.0106H156.394V44.4114Z" fill="white"/>
<path d="M173.192 44.4114H167.593V50.0106H173.192V44.4114Z" fill="white"/>
<path d="M178.791 44.4114H173.192V50.0106H178.791V44.4114Z" fill="white"/>
<path d="M184.39 44.4114H178.791V50.0106H184.39V44.4114Z" fill="white"/>
<path d="M189.989 44.4114H184.39V50.0106H189.989V44.4114Z" fill="white"/>
<path d="M16.4157 50.0106H10.8165V55.6097H16.4157V50.0106Z" fill="white"/>
<path d="M27.614 50.0106H22.0148V55.6097H27.614V50.0106Z" fill="white"/>
<path d="M38.8123 50.0106H33.2132V55.6097H38.8123V50.0106Z" fill="white"/>
<path d="M44.4115 50.0106H38.8123V55.6097H44.4115V50.0106Z" fill="white"/>
<path d="M50.0106 50.0106H44.4115V55.6097H50.0106V50.0106Z" fill="white"/>
<path d="M55.6098 50.0106H50.0106V55.6097H55.6098V50.0106Z" fill="white"/>
<path d="M72.4072 50.0106H66.8081V55.6097H72.4072V50.0106Z" fill="white"/>
<path d="M89.2047 50.0106H83.6055V55.6097H89.2047V50.0106Z" fill="white"/>
<path d="M117.2 50.0106H111.601V55.6097H117.2V50.0106Z" fill="white"/>
<path d="M122.8 50.0106H117.2V55.6097H122.8V50.0106Z" fill="white"/>
<path d="M133.998 50.0106H128.399V55.6097H133.998V50.0106Z" fill="white"/>
<path d="M139.597 50.0106H133.998V55.6097H139.597V50.0106Z" fill="white"/>
<path d="M150.795 50.0106H145.196V55.6097H150.795V50.0106Z" fill="white"/>
<path d="M156.394 50.0106H150.795V55.6097H156.394V50.0106Z" fill="white"/>
<path d="M189.989 50.0106H184.39V55.6097H189.989V50.0106Z" fill="white"/>
<path d="M195.589 50.0106H189.989V55.6097H195.589V50.0106Z" fill="white"/>
<path d="M201.188 50.0106H195.589V55.6097H201.188V50.0106Z" fill="white"/>
<path d="M206.787 50.0106H201.188V55.6097H206.787V50.0106Z" fill="white"/>
<path d="M217.985 50.0106H212.386V55.6097H217.985V50.0106Z" fill="white"/>
<path d="M223.584 50.0106H217.985V55.6097H223.584V50.0106Z" fill="white"/>
<path d="M234.783 50.0106H229.183V55.6097H234.783V50.0106Z" fill="white"/>
<path d="M22.0148 55.6097H16.4157V61.2089H22.0148V55.6097Z" fill="white"/>
<path d="M27.614 55.6097H22.0148V61.2089H27.614V55.6097Z" fill="white"/>
<path d="M50.0106 55.6097H44.4115V61.2089H50.0106V55.6097Z" fill="white"/>
<path d="M61.2089 55.6097H55.6098V61.2089H61.2089V55.6097Z" fill="white"/>
<path d="M66.8081 55.6097H61.2089V61.2089H66.8081V55.6097Z" fill="white"/>
<path d="M72.4072 55.6097H66.8081V61.2089H72.4072V55.6097Z" fill="white"/>
<path d="M78.0064 55.6097H72.4072V61.2089H78.0064V55.6097Z" fill="white"/>
<path d="M89.2047 55.6097H83.6055V61.2089H89.2047V55.6097Z" fill="white"/>
<path d="M106.002 55.6097H100.403V61.2089H106.002V55.6097Z" fill="white"/>
<path d="M111.601 55.6097H106.002V61.2089H111.601V55.6097Z" fill="white"/>
<path d="M117.2 55.6097H111.601V61.2089H117.2V55.6097Z" fill="white"/>
<path d="M139.597 55.6097H133.998V61.2089H139.597V55.6097Z" fill="white"/>
<path d="M145.196 55.6097H139.597V61.2089H145.196V55.6097Z" fill="white"/>
<path d="M150.795 55.6097H145.196V61.2089H150.795V55.6097Z" fill="white"/>
<path d="M156.394 55.6097H150.795V61.2089H156.394V55.6097Z" fill="white"/>
<path d="M167.593 55.6097H161.994V61.2089H167.593V55.6097Z" fill="white"/>
<path d="M178.791 55.6097H173.192V61.2089H178.791V55.6097Z" fill="white"/>
<path d="M189.989 55.6097H184.39V61.2089H189.989V55.6097Z" fill="white"/>
<path d="M195.589 55.6097H189.989V61.2089H195.589V55.6097Z" fill="white"/>
<path d="M201.188 55.6097H195.589V61.2089H201.188V55.6097Z" fill="white"/>
<path d="M217.985 55.6097H212.386V61.2089H217.985V55.6097Z" fill="white"/>
<path d="M223.584 55.6097H217.985V61.2089H223.584V55.6097Z" fill="white"/>
<path d="M229.183 55.6097H223.584V61.2089H229.183V55.6097Z" fill="white"/>
<path d="M234.783 55.6097H229.183V61.2089H234.783V55.6097Z" fill="white"/>
<path d="M10.8165 61.2089H5.21739V66.808H10.8165V61.2089Z" fill="white"/>
<path d="M27.614 61.2089H22.0148V66.808H27.614V61.2089Z" fill="white"/>
<path d="M33.2131 61.2089H27.614V66.808H33.2131V61.2089Z" fill="white"/>
<path d="M44.4115 61.2089H38.8123V66.808H44.4115V61.2089Z" fill="white"/>
<path d="M55.6098 61.2089H50.0106V66.808H55.6098V61.2089Z" fill="white"/>
<path d="M61.2089 61.2089H55.6098V66.808H61.2089V61.2089Z" fill="white"/>
<path d="M66.8081 61.2089H61.2089V66.808H66.8081V61.2089Z" fill="white"/>
<path d="M72.4072 61.2089H66.8081V66.808H72.4072V61.2089Z" fill="white"/>
<path d="M83.6055 61.2089H78.0064V66.808H83.6055V61.2089Z" fill="white"/>
<path d="M117.2 61.2089H111.601V66.808H117.2V61.2089Z" fill="white"/>
<path d="M145.196 61.2089H139.597V66.808H145.196V61.2089Z" fill="white"/>
<path d="M156.394 61.2089H150.795V66.808H156.394V61.2089Z" fill="white"/>
<path d="M178.791 61.2089H173.192V66.808H178.791V61.2089Z" fill="white"/>
<path d="M184.39 61.2089H178.791V66.808H184.39V61.2089Z" fill="white"/>
<path d="M206.787 61.2089H201.188V66.808H206.787V61.2089Z" fill="white"/>
<path d="M217.985 61.2089H212.386V66.808H217.985V61.2089Z" fill="white"/>
<path d="M223.584 61.2089H217.985V66.808H223.584V61.2089Z" fill="white"/>
<path d="M229.183 61.2089H223.584V66.808H229.183V61.2089Z" fill="white"/>
<path d="M10.8165 66.808H5.21739V72.4072H10.8165V66.808Z" fill="white"/>
<path d="M16.4157 66.808H10.8165V72.4072H16.4157V66.808Z" fill="white"/>
<path d="M22.0148 66.808H16.4157V72.4072H22.0148V66.808Z" fill="white"/>
<path d="M38.8123 66.808H33.2132V72.4072H38.8123V66.808Z" fill="white"/>
<path d="M50.0106 66.808H44.4115V72.4072H50.0106V66.808Z" fill="white"/>
<path d="M55.6098 66.808H50.0106V72.4072H55.6098V66.808Z" fill="white"/>
<path d="M72.4072 66.808H66.8081V72.4072H72.4072V66.808Z" fill="white"/>
<path d="M78.0064 66.808H72.4072V72.4072H78.0064V66.808Z" fill="white"/>
<path d="M83.6055 66.808H78.0064V72.4072H83.6055V66.808Z" fill="white"/>
<path d="M117.2 66.808H111.601V72.4072H117.2V66.808Z" fill="white"/>
<path d="M128.399 66.808H122.8V72.4072H128.399V66.808Z" fill="white"/>
<path d="M133.998 66.808H128.399V72.4072H133.998V66.808Z" fill="white"/>
<path d="M150.795 66.808H145.196V72.4072H150.795V66.808Z" fill="white"/>
<path d="M167.593 66.808H161.994V72.4072H167.593V66.808Z" fill="white"/>
<path d="M178.791 66.808H173.192V72.4072H178.791V66.808Z" fill="white"/>
<path d="M195.589 66.808H189.989V72.4072H195.589V66.808Z" fill="white"/>
<path d="M201.188 66.808H195.589V72.4072H201.188V66.808Z" fill="white"/>
<path d="M206.787 66.808H201.188V72.4072H206.787V66.808Z" fill="white"/>
<path d="M212.386 66.808H206.787V72.4072H212.386V66.808Z" fill="white"/>
<path d="M223.584 66.808H217.985V72.4072H223.584V66.808Z" fill="white"/>
<path d="M10.8165 72.4072H5.21739V78.0063H10.8165V72.4072Z" fill="white"/>
<path d="M16.4157 72.4072H10.8165V78.0063H16.4157V72.4072Z" fill="white"/>
<path d="M22.0148 72.4072H16.4157V78.0063H22.0148V72.4072Z" fill="white"/>
<path d="M27.614 72.4072H22.0148V78.0063H27.614V72.4072Z" fill="white"/>
<path d="M44.4115 72.4072H38.8123V78.0063H44.4115V72.4072Z" fill="white"/>
<path d="M50.0106 72.4072H44.4115V78.0063H50.0106V72.4072Z" fill="white"/>
<path d="M78.0064 72.4072H72.4072V78.0063H78.0064V72.4072Z" fill="white"/>
<path d="M94.8038 72.4072H89.2047V78.0063H94.8038V72.4072Z" fill="white"/>
<path d="M106.002 72.4072H100.403V78.0063H106.002V72.4072Z" fill="white"/>
<path d="M128.399 72.4072H122.8V78.0063H128.399V72.4072Z" fill="white"/>
<path d="M133.998 72.4072H128.399V78.0063H133.998V72.4072Z" fill="white"/>
<path d="M145.196 72.4072H139.597V78.0063H145.196V72.4072Z" fill="white"/>
<path d="M150.795 72.4072H145.196V78.0063H150.795V72.4072Z" fill="white"/>
<path d="M156.394 72.4072H150.795V78.0063H156.394V72.4072Z" fill="white"/>
<path d="M161.994 72.4072H156.394V78.0063H161.994V72.4072Z" fill="white"/>
<path d="M173.192 72.4072H167.593V78.0063H173.192V72.4072Z" fill="white"/>
<path d="M184.39 72.4072H178.791V78.0063H184.39V72.4072Z" fill="white"/>
<path d="M189.989 72.4072H184.39V78.0063H189.989V72.4072Z" fill="white"/>
<path d="M201.188 72.4072H195.589V78.0063H201.188V72.4072Z" fill="white"/>
<path d="M206.787 72.4072H201.188V78.0063H206.787V72.4072Z" fill="white"/>
<path d="M217.985 72.4072H212.386V78.0063H217.985V72.4072Z" fill="white"/>
<path d="M229.183 72.4072H223.584V78.0063H229.183V72.4072Z" fill="white"/>
<path d="M234.783 72.4072H229.183V78.0063H234.783V72.4072Z" fill="white"/>
<path d="M16.4157 78.0063H10.8165V83.6055H16.4157V78.0063Z" fill="white"/>
<path d="M22.0148 78.0063H16.4157V83.6055H22.0148V78.0063Z" fill="white"/>
<path d="M38.8123 78.0063H33.2132V83.6055H38.8123V78.0063Z" fill="white"/>
<path d="M55.6098 78.0063H50.0106V83.6055H55.6098V78.0063Z" fill="white"/>
<path d="M66.8081 78.0063H61.2089V83.6055H66.8081V78.0063Z" fill="white"/>
<path d="M72.4072 78.0063H66.8081V83.6055H72.4072V78.0063Z" fill="white"/>
<path d="M89.2047 78.0063H83.6055V83.6055H89.2047V78.0063Z" fill="white"/>
<path d="M94.8038 78.0063H89.2047V83.6055H94.8038V78.0063Z" fill="white"/>
<path d="M111.601 78.0063H106.002V83.6055H111.601V78.0063Z" fill="white"/>
<path d="M117.2 78.0063H111.601V83.6055H117.2V78.0063Z" fill="white"/>
<path d="M122.8 78.0063H117.2V83.6055H122.8V78.0063Z" fill="white"/>
<path d="M133.998 78.0063H128.399V83.6055H133.998V78.0063Z" fill="white"/>
<path d="M139.597 78.0063H133.998V83.6055H139.597V78.0063Z" fill="white"/>
<path d="M145.196 78.0063H139.597V83.6055H145.196V78.0063Z" fill="white"/>
<path d="M167.593 78.0063H161.994V83.6055H167.593V78.0063Z" fill="white"/>
<path d="M173.192 78.0063H167.593V83.6055H173.192V78.0063Z" fill="white"/>
<path d="M184.39 78.0063H178.791V83.6055H184.39V78.0063Z" fill="white"/>
<path d="M189.989 78.0063H184.39V83.6055H189.989V78.0063Z" fill="white"/>
<path d="M22.0148 83.6055H16.4157V89.2047H22.0148V83.6055Z" fill="white"/>
<path d="M27.614 83.6055H22.0148V89.2047H27.614V83.6055Z" fill="white"/>
<path d="M38.8123 83.6055H33.2132V89.2047H38.8123V83.6055Z" fill="white"/>
<path d="M44.4115 83.6055H38.8123V89.2047H44.4115V83.6055Z" fill="white"/>
<path d="M50.0106 83.6055H44.4115V89.2047H50.0106V83.6055Z" fill="white"/>
<path d="M66.8081 83.6055H61.2089V89.2047H66.8081V83.6055Z" fill="white"/>
<path d="M72.4072 83.6055H66.8081V89.2047H72.4072V83.6055Z" fill="white"/>
<path d="M83.6055 83.6055H78.0064V89.2047H83.6055V83.6055Z" fill="white"/>
<path d="M122.8 83.6055H117.2V89.2047H122.8V83.6055Z" fill="white"/>
<path d="M128.399 83.6055H122.8V89.2047H128.399V83.6055Z" fill="white"/>
<path d="M145.196 83.6055H139.597V89.2047H145.196V83.6055Z" fill="white"/>
<path d="M173.192 83.6055H167.593V89.2047H173.192V83.6055Z" fill="white"/>
<path d="M178.791 83.6055H173.192V89.2047H178.791V83.6055Z" fill="white"/>
<path d="M189.989 83.6055H184.39V89.2047H189.989V83.6055Z" fill="white"/>
<path d="M201.188 83.6055H195.589V89.2047H201.188V83.6055Z" fill="white"/>
<path d="M223.584 83.6055H217.985V89.2047H223.584V83.6055Z" fill="white"/>
<path d="M229.183 83.6055H223.584V89.2047H229.183V83.6055Z" fill="white"/>
<path d="M234.783 83.6055H229.183V89.2047H234.783V83.6055Z" fill="white"/>
<path d="M10.8165 89.2047H5.21739V94.8038H10.8165V89.2047Z" fill="white"/>
<path d="M27.614 89.2047H22.0148V94.8038H27.614V89.2047Z" fill="white"/>
<path d="M38.8123 89.2047H33.2132V94.8038H38.8123V89.2047Z" fill="white"/>
<path d="M50.0106 89.2047H44.4115V94.8038H50.0106V89.2047Z" fill="white"/>
<path d="M66.8081 89.2047H61.2089V94.8038H66.8081V89.2047Z" fill="white"/>
<path d="M72.4072 89.2047H66.8081V94.8038H72.4072V89.2047Z" fill="white"/>
<path d="M94.8038 89.2047H89.2047V94.8038H94.8038V89.2047Z" fill="white"/>
<path d="M111.601 89.2047H106.002V94.8038H111.601V89.2047Z" fill="white"/>
<path d="M117.2 89.2047H111.601V94.8038H117.2V89.2047Z" fill="white"/>
<path d="M128.399 89.2047H122.8V94.8038H128.399V89.2047Z" fill="white"/>
<path d="M145.196 89.2047H139.597V94.8038H145.196V89.2047Z" fill="white"/>
<path d="M150.795 89.2047H145.196V94.8038H150.795V89.2047Z" fill="white"/>
<path d="M156.394 89.2047H150.795V94.8038H156.394V89.2047Z" fill="white"/>
<path d="M161.994 89.2047H156.394V94.8038H161.994V89.2047Z" fill="white"/>
<path d="M167.593 89.2047H161.994V94.8038H167.593V89.2047Z" fill="white"/>
<path d="M173.192 89.2047H167.593V94.8038H173.192V89.2047Z" fill="white"/>
<path d="M178.791 89.2047H173.192V94.8038H178.791V89.2047Z" fill="white"/>
<path d="M184.39 89.2047H178.791V94.8038H184.39V89.2047Z" fill="white"/>
<path d="M201.188 89.2047H195.589V94.8038H201.188V89.2047Z" fill="white"/>
<path d="M212.386 89.2047H206.787V94.8038H212.386V89.2047Z" fill="white"/>
<path d="M217.985 89.2047H212.386V94.8038H217.985V89.2047Z" fill="white"/>
<path d="M234.783 89.2047H229.183V94.8038H234.783V89.2047Z" fill="white"/>
<path d="M10.8165 94.8038H5.21739V100.403H10.8165V94.8038Z" fill="white"/>
<path d="M27.614 94.8038H22.0148V100.403H27.614V94.8038Z" fill="white"/>
<path d="M33.2131 94.8038H27.614V100.403H33.2131V94.8038Z" fill="white"/>
<path d="M38.8123 94.8038H33.2132V100.403H38.8123V94.8038Z" fill="white"/>
<path d="M44.4115 94.8038H38.8123V100.403H44.4115V94.8038Z" fill="white"/>
<path d="M61.2089 94.8038H55.6098V100.403H61.2089V94.8038Z" fill="white"/>
<path d="M66.8081 94.8038H61.2089V100.403H66.8081V94.8038Z" fill="white"/>
<path d="M72.4072 94.8038H66.8081V100.403H72.4072V94.8038Z" fill="white"/>
<path d="M78.0064 94.8038H72.4072V100.403H78.0064V94.8038Z" fill="white"/>
<path d="M94.8038 94.8038H89.2047V100.403H94.8038V94.8038Z" fill="white"/>
<path d="M106.002 94.8038H100.403V100.403H106.002V94.8038Z" fill="white"/>
<path d="M139.597 94.8038H133.998V100.403H139.597V94.8038Z" fill="white"/>
<path d="M145.196 94.8038H139.597V100.403H145.196V94.8038Z" fill="white"/>
<path d="M156.394 94.8038H150.795V100.403H156.394V94.8038Z" fill="white"/>
<path d="M173.192 94.8038H167.593V100.403H173.192V94.8038Z" fill="white"/>
<path d="M189.989 94.8038H184.39V100.403H189.989V94.8038Z" fill="white"/>
<path d="M206.787 94.8038H201.188V100.403H206.787V94.8038Z" fill="white"/>
<path d="M217.985 94.8038H212.386V100.403H217.985V94.8038Z" fill="white"/>
<path d="M229.183 94.8038H223.584V100.403H229.183V94.8038Z" fill="white"/>
<path d="M234.783 94.8038H229.183V100.403H234.783V94.8038Z" fill="white"/>
<path d="M10.8165 100.403H5.21739V106.002H10.8165V100.403Z" fill="white"/>
<path d="M16.4157 100.403H10.8165V106.002H16.4157V100.403Z" fill="white"/>
<path d="M22.0148 100.403H16.4157V106.002H22.0148V100.403Z" fill="white"/>
<path d="M27.614 100.403H22.0148V106.002H27.614V100.403Z" fill="white"/>
<path d="M38.8123 100.403H33.2132V106.002H38.8123V100.403Z" fill="white"/>
<path d="M50.0106 100.403H44.4115V106.002H50.0106V100.403Z" fill="white"/>
<path d="M61.2089 100.403H55.6098V106.002H61.2089V100.403Z" fill="white"/>
<path d="M66.8081 100.403H61.2089V106.002H66.8081V100.403Z" fill="white"/>
<path d="M83.6055 100.403H78.0064V106.002H83.6055V100.403Z" fill="white"/>
<path d="M100.403 100.403H94.8038V106.002H100.403V100.403Z" fill="white"/>
<path d="M106.002 100.403H100.403V106.002H106.002V100.403Z" fill="white"/>
<path d="M111.601 100.403H106.002V106.002H111.601V100.403Z" fill="white"/>
<path d="M122.8 100.403H117.2V106.002H122.8V100.403Z" fill="white"/>
<path d="M139.597 100.403H133.998V106.002H139.597V100.403Z" fill="white"/>
<path d="M145.196 100.403H139.597V106.002H145.196V100.403Z" fill="white"/>
<path d="M150.795 100.403H145.196V106.002H150.795V100.403Z" fill="white"/>
<path d="M167.593 100.403H161.994V106.002H167.593V100.403Z" fill="white"/>
<path d="M178.791 100.403H173.192V106.002H178.791V100.403Z" fill="white"/>
<path d="M189.989 100.403H184.39V106.002H189.989V100.403Z" fill="white"/>
<path d="M201.188 100.403H195.589V106.002H201.188V100.403Z" fill="white"/>
<path d="M206.787 100.403H201.188V106.002H206.787V100.403Z" fill="white"/>
<path d="M217.985 100.403H212.386V106.002H217.985V100.403Z" fill="white"/>
<path d="M223.584 100.403H217.985V106.002H223.584V100.403Z" fill="white"/>
<path d="M229.183 100.403H223.584V106.002H229.183V100.403Z" fill="white"/>
<path d="M234.783 100.403H229.183V106.002H234.783V100.403Z" fill="white"/>
<path d="M33.2131 106.002H27.614V111.601H33.2131V106.002Z" fill="white"/>
<path d="M38.8123 106.002H33.2132V111.601H38.8123V106.002Z" fill="white"/>
<path d="M44.4115 106.002H38.8123V111.601H44.4115V106.002Z" fill="white"/>
<path d="M55.6098 106.002H50.0106V111.601H55.6098V106.002Z" fill="white"/>
<path d="M61.2089 106.002H55.6098V111.601H61.2089V106.002Z" fill="white"/>
<path d="M72.4072 106.002H66.8081V111.601H72.4072V106.002Z" fill="white"/>
<path d="M78.0064 106.002H72.4072V111.601H78.0064V106.002Z" fill="white"/>
<path d="M94.8038 106.002H89.2047V111.601H94.8038V106.002Z" fill="white"/>
<path d="M106.002 106.002H100.403V111.601H106.002V106.002Z" fill="white"/>
<path d="M111.601 106.002H106.002V111.601H111.601V106.002Z" fill="white"/>
<path d="M117.2 106.002H111.601V111.601H117.2V106.002Z" fill="white"/>
<path d="M128.399 106.002H122.8V111.601H128.399V106.002Z" fill="white"/>
<path d="M133.998 106.002H128.399V111.601H133.998V106.002Z" fill="white"/>
<path d="M145.196 106.002H139.597V111.601H145.196V106.002Z" fill="white"/>
<path d="M150.795 106.002H145.196V111.601H150.795V106.002Z" fill="white"/>
<path d="M167.593 106.002H161.994V111.601H167.593V106.002Z" fill="white"/>
<path d="M201.188 106.002H195.589V111.601H201.188V106.002Z" fill="white"/>
<path d="M212.386 106.002H206.787V111.601H212.386V106.002Z" fill="white"/>
<path d="M217.985 106.002H212.386V111.601H217.985V106.002Z" fill="white"/>
<path d="M223.584 106.002H217.985V111.601H223.584V106.002Z" fill="white"/>
<path d="M229.183 106.002H223.584V111.601H229.183V106.002Z" fill="white"/>
<path d="M234.783 106.002H229.183V111.601H234.783V106.002Z" fill="white"/>
<path d="M10.8165 111.601H5.21739V117.2H10.8165V111.601Z" fill="white"/>
<path d="M16.4157 111.601H10.8165V117.2H16.4157V111.601Z" fill="white"/>
<path d="M27.614 111.601H22.0148V117.2H27.614V111.601Z" fill="white"/>
<path d="M38.8123 111.601H33.2132V117.2H38.8123V111.601Z" fill="white"/>
<path d="M55.6098 111.601H50.0106V117.2H55.6098V111.601Z" fill="white"/>
<path d="M61.2089 111.601H55.6098V117.2H61.2089V111.601Z" fill="white"/>
<path d="M78.0064 111.601H72.4072V117.2H78.0064V111.601Z" fill="white"/>
<path d="M83.6055 111.601H78.0064V117.2H83.6055V111.601Z" fill="white"/>
<path d="M106.002 111.601H100.403V117.2H106.002V111.601Z" fill="white"/>
<path d="M111.601 111.601H106.002V117.2H111.601V111.601Z" fill="white"/>
<path d="M133.998 111.601H128.399V117.2H133.998V111.601Z" fill="white"/>
<path d="M139.597 111.601H133.998V117.2H139.597V111.601Z" fill="white"/>
<path d="M145.196 111.601H139.597V117.2H145.196V111.601Z" fill="white"/>
<path d="M173.192 111.601H167.593V117.2H173.192V111.601Z" fill="white"/>
<path d="M178.791 111.601H173.192V117.2H178.791V111.601Z" fill="white"/>
<path d="M184.39 111.601H178.791V117.2H184.39V111.601Z" fill="white"/>
<path d="M195.589 111.601H189.989V117.2H195.589V111.601Z" fill="white"/>
<path d="M206.787 111.601H201.188V117.2H206.787V111.601Z" fill="white"/>
<path d="M217.985 111.601H212.386V117.2H217.985V111.601Z" fill="white"/>
<path d="M27.614 117.2H22.0148V122.8H27.614V117.2Z" fill="white"/>
<path d="M44.4115 117.2H38.8123V122.8H44.4115V117.2Z" fill="white"/>
<path d="M55.6098 117.2H50.0106V122.8H55.6098V117.2Z" fill="white"/>
<path d="M66.8081 117.2H61.2089V122.8H66.8081V117.2Z" fill="white"/>
<path d="M78.0064 117.2H72.4072V122.8H78.0064V117.2Z" fill="white"/>
<path d="M83.6055 117.2H78.0064V122.8H83.6055V117.2Z" fill="white"/>
<path d="M89.2047 117.2H83.6055V122.8H89.2047V117.2Z" fill="white"/>
<path d="M100.403 117.2H94.8038V122.8H100.403V117.2Z" fill="white"/>
<path d="M117.2 117.2H111.601V122.8H117.2V117.2Z" fill="white"/>
<path d="M122.8 117.2H117.2V122.8H122.8V117.2Z" fill="white"/>
<path d="M128.399 117.2H122.8V122.8H128.399V117.2Z" fill="white"/>
<path d="M139.597 117.2H133.998V122.8H139.597V117.2Z" fill="white"/>
<path d="M189.989 117.2H184.39V122.8H189.989V117.2Z" fill="white"/>
<path d="M195.589 117.2H189.989V122.8H195.589V117.2Z" fill="white"/>
<path d="M201.188 117.2H195.589V122.8H201.188V117.2Z" fill="white"/>
<path d="M217.985 117.2H212.386V122.8H217.985V117.2Z" fill="white"/>
<path d="M223.584 117.2H217.985V122.8H223.584V117.2Z" fill="white"/>
<path d="M229.183 117.2H223.584V122.8H229.183V117.2Z" fill="white"/>
<path d="M10.8165 122.8H5.21739V128.399H10.8165V122.8Z" fill="white"/>
<path d="M16.4157 122.8H10.8165V128.399H16.4157V122.8Z" fill="white"/>
<path d="M22.0148 122.8H16.4157V128.399H22.0148V122.8Z" fill="white"/>
<path d="M27.614 122.8H22.0148V128.399H27.614V122.8Z" fill="white"/>
<path d="M55.6098 122.8H50.0106V128.399H55.6098V122.8Z" fill="white"/>
<path d="M78.0064 122.8H72.4072V128.399H78.0064V122.8Z" fill="white"/>
<path d="M83.6055 122.8H78.0064V128.399H83.6055V122.8Z" fill="white"/>
<path d="M106.002 122.8H100.403V128.399H106.002V122.8Z" fill="white"/>
<path d="M145.196 122.8H139.597V128.399H145.196V122.8Z" fill="white"/>
<path d="M150.795 122.8H145.196V128.399H150.795V122.8Z" fill="white"/>
<path d="M167.593 122.8H161.994V128.399H167.593V122.8Z" fill="white"/>
<path d="M173.192 122.8H167.593V128.399H173.192V122.8Z" fill="white"/>
<path d="M189.989 122.8H184.39V128.399H189.989V122.8Z" fill="white"/>
<path d="M195.589 122.8H189.989V128.399H195.589V122.8Z" fill="white"/>
<path d="M201.188 122.8H195.589V128.399H201.188V122.8Z" fill="white"/>
<path d="M206.787 122.8H201.188V128.399H206.787V122.8Z" fill="white"/>
<path d="M229.183 122.8H223.584V128.399H229.183V122.8Z" fill="white"/>
<path d="M234.783 122.8H229.183V128.399H234.783V122.8Z" fill="white"/>
<path d="M22.0148 128.399H16.4157V133.998H22.0148V128.399Z" fill="white"/>
<path d="M27.614 128.399H22.0148V133.998H27.614V128.399Z" fill="white"/>
<path d="M33.2131 128.399H27.614V133.998H33.2131V128.399Z" fill="white"/>
<path d="M44.4115 128.399H38.8123V133.998H44.4115V128.399Z" fill="white"/>
<path d="M50.0106 128.399H44.4115V133.998H50.0106V128.399Z" fill="white"/>
<path d="M55.6098 128.399H50.0106V133.998H55.6098V128.399Z" fill="white"/>
<path d="M66.8081 128.399H61.2089V133.998H66.8081V128.399Z" fill="white"/>
<path d="M72.4072 128.399H66.8081V133.998H72.4072V128.399Z" fill="white"/>
<path d="M83.6055 128.399H78.0064V133.998H83.6055V128.399Z" fill="white"/>
<path d="M89.2047 128.399H83.6055V133.998H89.2047V128.399Z" fill="white"/>
<path d="M106.002 128.399H100.403V133.998H106.002V128.399Z" fill="white"/>
<path d="M117.2 128.399H111.601V133.998H117.2V128.399Z" fill="white"/>
<path d="M122.8 128.399H117.2V133.998H122.8V128.399Z" fill="white"/>
<path d="M133.998 128.399H128.399V133.998H133.998V128.399Z" fill="white"/>
<path d="M156.394 128.399H150.795V133.998H156.394V128.399Z" fill="white"/>
<path d="M167.593 128.399H161.994V133.998H167.593V128.399Z" fill="white"/>
<path d="M173.192 128.399H167.593V133.998H173.192V128.399Z" fill="white"/>
<path d="M178.791 128.399H173.192V133.998H178.791V128.399Z" fill="white"/>
<path d="M184.39 128.399H178.791V133.998H184.39V128.399Z" fill="white"/>
<path d="M189.989 128.399H184.39V133.998H189.989V128.399Z" fill="white"/>
<path d="M195.589 128.399H189.989V133.998H195.589V128.399Z" fill="white"/>
<path d="M212.386 128.399H206.787V133.998H212.386V128.399Z" fill="white"/>
<path d="M217.985 128.399H212.386V133.998H217.985V128.399Z" fill="white"/>
<path d="M229.183 128.399H223.584V133.998H229.183V128.399Z" fill="white"/>
<path d="M27.614 133.998H22.0148V139.597H27.614V133.998Z" fill="white"/>
<path d="M33.2131 133.998H27.614V139.597H33.2131V133.998Z" fill="white"/>
<path d="M50.0106 133.998H44.4115V139.597H50.0106V133.998Z" fill="white"/>
<path d="M61.2089 133.998H55.6098V139.597H61.2089V133.998Z" fill="white"/>
<path d="M78.0064 133.998H72.4072V139.597H78.0064V133.998Z" fill="white"/>
<path d="M83.6055 133.998H78.0064V139.597H83.6055V133.998Z" fill="white"/>
<path d="M94.8038 133.998H89.2047V139.597H94.8038V133.998Z" fill="white"/>
<path d="M106.002 133.998H100.403V139.597H106.002V133.998Z" fill="white"/>
<path d="M111.601 133.998H106.002V139.597H111.601V133.998Z" fill="white"/>
<path d="M117.2 133.998H111.601V139.597H117.2V133.998Z" fill="white"/>
<path d="M122.8 133.998H117.2V139.597H122.8V133.998Z" fill="white"/>
<path d="M133.998 133.998H128.399V139.597H133.998V133.998Z" fill="white"/>
<path d="M145.196 133.998H139.597V139.597H145.196V133.998Z" fill="white"/>
<path d="M150.795 133.998H145.196V139.597H150.795V133.998Z" fill="white"/>
<path d="M167.593 133.998H161.994V139.597H167.593V133.998Z" fill="white"/>
<path d="M195.589 133.998H189.989V139.597H195.589V133.998Z" fill="white"/>
<path d="M217.985 133.998H212.386V139.597H217.985V133.998Z" fill="white"/>
<path d="M223.584 133.998H217.985V139.597H223.584V133.998Z" fill="white"/>
<path d="M234.783 133.998H229.183V139.597H234.783V133.998Z" fill="white"/>
<path d="M22.0148 139.597H16.4157V145.196H22.0148V139.597Z" fill="white"/>
<path d="M27.614 139.597H22.0148V145.196H27.614V139.597Z" fill="white"/>
<path d="M33.2131 139.597H27.614V145.196H33.2131V139.597Z" fill="white"/>
<path d="M38.8123 139.597H33.2132V145.196H38.8123V139.597Z" fill="white"/>
<path d="M44.4115 139.597H38.8123V145.196H44.4115V139.597Z" fill="white"/>
<path d="M50.0106 139.597H44.4115V145.196H50.0106V139.597Z" fill="white"/>
<path d="M66.8081 139.597H61.2089V145.196H66.8081V139.597Z" fill="white"/>
<path d="M72.4072 139.597H66.8081V145.196H72.4072V139.597Z" fill="white"/>
<path d="M89.2047 139.597H83.6055V145.196H89.2047V139.597Z" fill="white"/>
<path d="M94.8038 139.597H89.2047V145.196H94.8038V139.597Z" fill="white"/>
<path d="M106.002 139.597H100.403V145.196H106.002V139.597Z" fill="white"/>
<path d="M145.196 139.597H139.597V145.196H145.196V139.597Z" fill="white"/>
<path d="M150.795 139.597H145.196V145.196H150.795V139.597Z" fill="white"/>
<path d="M156.394 139.597H150.795V145.196H156.394V139.597Z" fill="white"/>
<path d="M161.994 139.597H156.394V145.196H161.994V139.597Z" fill="white"/>
<path d="M167.593 139.597H161.994V145.196H167.593V139.597Z" fill="white"/>
<path d="M173.192 139.597H167.593V145.196H173.192V139.597Z" fill="white"/>
<path d="M184.39 139.597H178.791V145.196H184.39V139.597Z" fill="white"/>
<path d="M189.989 139.597H184.39V145.196H189.989V139.597Z" fill="white"/>
<path d="M195.589 139.597H189.989V145.196H195.589V139.597Z" fill="white"/>
<path d="M201.188 139.597H195.589V145.196H201.188V139.597Z" fill="white"/>
<path d="M217.985 139.597H212.386V145.196H217.985V139.597Z" fill="white"/>
<path d="M229.183 139.597H223.584V145.196H229.183V139.597Z" fill="white"/>
<path d="M234.783 139.597H229.183V145.196H234.783V139.597Z" fill="white"/>
<path d="M16.4157 145.196H10.8165V150.795H16.4157V145.196Z" fill="white"/>
<path d="M27.614 145.196H22.0148V150.795H27.614V145.196Z" fill="white"/>
<path d="M38.8123 145.196H33.2132V150.795H38.8123V145.196Z" fill="white"/>
<path d="M55.6098 145.196H50.0106V150.795H55.6098V145.196Z" fill="white"/>
<path d="M83.6055 145.196H78.0064V150.795H83.6055V145.196Z" fill="white"/>
<path d="M89.2047 145.196H83.6055V150.795H89.2047V145.196Z" fill="white"/>
<path d="M94.8038 145.196H89.2047V150.795H94.8038V145.196Z" fill="white"/>
<path d="M122.8 145.196H117.2V150.795H122.8V145.196Z" fill="white"/>
<path d="M133.998 145.196H128.399V150.795H133.998V145.196Z" fill="white"/>
<path d="M145.196 145.196H139.597V150.795H145.196V145.196Z" fill="white"/>
<path d="M150.795 145.196H145.196V150.795H150.795V145.196Z" fill="white"/>
<path d="M184.39 145.196H178.791V150.795H184.39V145.196Z" fill="white"/>
<path d="M195.589 145.196H189.989V150.795H195.589V145.196Z" fill="white"/>
<path d="M217.985 145.196H212.386V150.795H217.985V145.196Z" fill="white"/>
<path d="M10.8165 150.795H5.21739V156.394H10.8165V150.795Z" fill="white"/>
<path d="M22.0148 150.795H16.4157V156.394H22.0148V150.795Z" fill="white"/>
<path d="M44.4115 150.795H38.8123V156.394H44.4115V150.795Z" fill="white"/>
<path d="M66.8081 150.795H61.2089V156.394H66.8081V150.795Z" fill="white"/>
<path d="M72.4072 150.795H66.8081V156.394H72.4072V150.795Z" fill="white"/>
<path d="M83.6055 150.795H78.0064V156.394H83.6055V150.795Z" fill="white"/>
<path d="M94.8038 150.795H89.2047V156.394H94.8038V150.795Z" fill="white"/>
<path d="M100.403 150.795H94.8038V156.394H100.403V150.795Z" fill="white"/>
<path d="M133.998 150.795H128.399V156.394H133.998V150.795Z" fill="white"/>
<path d="M139.597 150.795H133.998V156.394H139.597V150.795Z" fill="white"/>
<path d="M145.196 150.795H139.597V156.394H145.196V150.795Z" fill="white"/>
<path d="M150.795 150.795H145.196V156.394H150.795V150.795Z" fill="white"/>
<path d="M156.394 150.795H150.795V156.394H156.394V150.795Z" fill="white"/>
<path d="M189.989 150.795H184.39V156.394H189.989V150.795Z" fill="white"/>
<path d="M201.188 150.795H195.589V156.394H201.188V150.795Z" fill="white"/>
<path d="M234.783 150.795H229.183V156.394H234.783V150.795Z" fill="white"/>
<path d="M33.2131 156.394H27.614V161.994H33.2131V156.394Z" fill="white"/>
<path d="M55.6098 156.394H50.0106V161.994H55.6098V156.394Z" fill="white"/>
<path d="M78.0064 156.394H72.4072V161.994H78.0064V156.394Z" fill="white"/>
<path d="M83.6055 156.394H78.0064V161.994H83.6055V156.394Z" fill="white"/>
<path d="M111.601 156.394H106.002V161.994H111.601V156.394Z" fill="white"/>
<path d="M117.2 156.394H111.601V161.994H117.2V156.394Z" fill="white"/>
<path d="M122.8 156.394H117.2V161.994H122.8V156.394Z" fill="white"/>
<path d="M133.998 156.394H128.399V161.994H133.998V156.394Z" fill="white"/>
<path d="M150.795 156.394H145.196V161.994H150.795V156.394Z" fill="white"/>
<path d="M161.994 156.394H156.394V161.994H161.994V156.394Z" fill="white"/>
<path d="M167.593 156.394H161.994V161.994H167.593V156.394Z" fill="white"/>
<path d="M173.192 156.394H167.593V161.994H173.192V156.394Z" fill="white"/>
<path d="M189.989 156.394H184.39V161.994H189.989V156.394Z" fill="white"/>
<path d="M206.787 156.394H201.188V161.994H206.787V156.394Z" fill="white"/>
<path d="M229.183 156.394H223.584V161.994H229.183V156.394Z" fill="white"/>
<path d="M234.783 156.394H229.183V161.994H234.783V156.394Z" fill="white"/>
<path d="M16.4157 161.994H10.8165V167.593H16.4157V161.994Z" fill="white"/>
<path d="M22.0148 161.994H16.4157V167.593H22.0148V161.994Z" fill="white"/>
<path d="M33.2131 161.994H27.614V167.593H33.2131V161.994Z" fill="white"/>
<path d="M38.8123 161.994H33.2132V167.593H38.8123V161.994Z" fill="white"/>
<path d="M44.4115 161.994H38.8123V167.593H44.4115V161.994Z" fill="white"/>
<path d="M55.6098 161.994H50.0106V167.593H55.6098V161.994Z" fill="white"/>
<path d="M66.8081 161.994H61.2089V167.593H66.8081V161.994Z" fill="white"/>
<path d="M106.002 161.994H100.403V167.593H106.002V161.994Z" fill="white"/>
<path d="M111.601 161.994H106.002V167.593H111.601V161.994Z" fill="white"/>
<path d="M117.2 161.994H111.601V167.593H117.2V161.994Z" fill="white"/>
<path d="M167.593 161.994H161.994V167.593H167.593V161.994Z" fill="white"/>
<path d="M173.192 161.994H167.593V167.593H173.192V161.994Z" fill="white"/>
<path d="M229.183 161.994H223.584V167.593H229.183V161.994Z" fill="white"/>
<path d="M16.4157 167.593H10.8165V173.192H16.4157V167.593Z" fill="white"/>
<path d="M33.2131 167.593H27.614V173.192H33.2131V167.593Z" fill="white"/>
<path d="M50.0106 167.593H44.4115V173.192H50.0106V167.593Z" fill="white"/>
<path d="M78.0064 167.593H72.4072V173.192H78.0064V167.593Z" fill="white"/>
<path d="M83.6055 167.593H78.0064V173.192H83.6055V167.593Z" fill="white"/>
<path d="M106.002 167.593H100.403V173.192H106.002V167.593Z" fill="white"/>
<path d="M111.601 167.593H106.002V173.192H111.601V167.593Z" fill="white"/>
<path d="M128.399 167.593H122.8V173.192H128.399V167.593Z" fill="white"/>
<path d="M150.795 167.593H145.196V173.192H150.795V167.593Z" fill="white"/>
<path d="M156.394 167.593H150.795V173.192H156.394V167.593Z" fill="white"/>
<path d="M189.989 167.593H184.39V173.192H189.989V167.593Z" fill="white"/>
<path d="M201.188 167.593H195.589V173.192H201.188V167.593Z" fill="white"/>
<path d="M206.787 167.593H201.188V173.192H206.787V167.593Z" fill="white"/>
<path d="M229.183 167.593H223.584V173.192H229.183V167.593Z" fill="white"/>
<path d="M234.783 167.593H229.183V173.192H234.783V167.593Z" fill="white"/>
<path d="M10.8165 173.192H5.21739V178.791H10.8165V173.192Z" fill="white"/>
<path d="M22.0148 173.192H16.4157V178.791H22.0148V173.192Z" fill="white"/>
<path d="M27.614 173.192H22.0148V178.791H27.614V173.192Z" fill="white"/>
<path d="M38.8123 173.192H33.2132V178.791H38.8123V173.192Z" fill="white"/>
<path d="M44.4115 173.192H38.8123V178.791H44.4115V173.192Z" fill="white"/>
<path d="M50.0106 173.192H44.4115V178.791H50.0106V173.192Z" fill="white"/>
<path d="M55.6098 173.192H50.0106V178.791H55.6098V173.192Z" fill="white"/>
<path d="M72.4072 173.192H66.8081V178.791H72.4072V173.192Z" fill="white"/>
<path d="M78.0064 173.192H72.4072V178.791H78.0064V173.192Z" fill="white"/>
<path d="M83.6055 173.192H78.0064V178.791H83.6055V173.192Z" fill="white"/>
<path d="M94.8038 173.192H89.2047V178.791H94.8038V173.192Z" fill="white"/>
<path d="M100.403 173.192H94.8038V178.791H100.403V173.192Z" fill="white"/>
<path d="M106.002 173.192H100.403V178.791H106.002V173.192Z" fill="white"/>
<path d="M111.601 173.192H106.002V178.791H111.601V173.192Z" fill="white"/>
<path d="M128.399 173.192H122.8V178.791H128.399V173.192Z" fill="white"/>
<path d="M156.394 173.192H150.795V178.791H156.394V173.192Z" fill="white"/>
<path d="M167.593 173.192H161.994V178.791H167.593V173.192Z" fill="white"/>
<path d="M173.192 173.192H167.593V178.791H173.192V173.192Z" fill="white"/>
<path d="M178.791 173.192H173.192V178.791H178.791V173.192Z" fill="white"/>
<path d="M189.989 173.192H184.39V178.791H189.989V173.192Z" fill="white"/>
<path d="M206.787 173.192H201.188V178.791H206.787V173.192Z" fill="white"/>
<path d="M234.783 173.192H229.183V178.791H234.783V173.192Z" fill="white"/>
<path d="M27.614 178.791H22.0148V184.39H27.614V178.791Z" fill="white"/>
<path d="M38.8123 178.791H33.2132V184.39H38.8123V178.791Z" fill="white"/>
<path d="M55.6098 178.791H50.0106V184.39H55.6098V178.791Z" fill="white"/>
<path d="M61.2089 178.791H55.6098V184.39H61.2089V178.791Z" fill="white"/>
<path d="M66.8081 178.791H61.2089V184.39H66.8081V178.791Z" fill="white"/>
<path d="M72.4072 178.791H66.8081V184.39H72.4072V178.791Z" fill="white"/>
<path d="M78.0064 178.791H72.4072V184.39H78.0064V178.791Z" fill="white"/>
<path d="M89.2047 178.791H83.6055V184.39H89.2047V178.791Z" fill="white"/>
<path d="M94.8038 178.791H89.2047V184.39H94.8038V178.791Z" fill="white"/>
<path d="M100.403 178.791H94.8038V184.39H100.403V178.791Z" fill="white"/>
<path d="M106.002 178.791H100.403V184.39H106.002V178.791Z" fill="white"/>
<path d="M111.601 178.791H106.002V184.39H111.601V178.791Z" fill="white"/>
<path d="M117.2 178.791H111.601V184.39H117.2V178.791Z" fill="white"/>
<path d="M139.597 178.791H133.998V184.39H139.597V178.791Z" fill="white"/>
<path d="M156.394 178.791H150.795V184.39H156.394V178.791Z" fill="white"/>
<path d="M167.593 178.791H161.994V184.39H167.593V178.791Z" fill="white"/>
<path d="M173.192 178.791H167.593V184.39H173.192V178.791Z" fill="white"/>
<path d="M184.39 178.791H178.791V184.39H184.39V178.791Z" fill="white"/>
<path d="M195.589 178.791H189.989V184.39H195.589V178.791Z" fill="white"/>
<path d="M206.787 178.791H201.188V184.39H206.787V178.791Z" fill="white"/>
<path d="M217.985 178.791H212.386V184.39H217.985V178.791Z" fill="white"/>
<path d="M229.183 178.791H223.584V184.39H229.183V178.791Z" fill="white"/>
<path d="M234.783 178.791H229.183V184.39H234.783V178.791Z" fill="white"/>
<path d="M10.8165 184.39H5.21739V189.989H10.8165V184.39Z" fill="white"/>
<path d="M22.0148 184.39H16.4157V189.989H22.0148V184.39Z" fill="white"/>
<path d="M44.4115 184.39H38.8123V189.989H44.4115V184.39Z" fill="white"/>
<path d="M55.6098 184.39H50.0106V189.989H55.6098V184.39Z" fill="white"/>
<path d="M66.8081 184.39H61.2089V189.989H66.8081V184.39Z" fill="white"/>
<path d="M72.4072 184.39H66.8081V189.989H72.4072V184.39Z" fill="white"/>
<path d="M78.0064 184.39H72.4072V189.989H78.0064V184.39Z" fill="white"/>
<path d="M89.2047 184.39H83.6055V189.989H89.2047V184.39Z" fill="white"/>
<path d="M111.601 184.39H106.002V189.989H111.601V184.39Z" fill="white"/>
<path d="M117.2 184.39H111.601V189.989H117.2V184.39Z" fill="white"/>
<path d="M128.399 184.39H122.8V189.989H128.399V184.39Z" fill="white"/>
<path d="M139.597 184.39H133.998V189.989H139.597V184.39Z" fill="white"/>
<path d="M150.795 184.39H145.196V189.989H150.795V184.39Z" fill="white"/>
<path d="M173.192 184.39H167.593V189.989H173.192V184.39Z" fill="white"/>
<path d="M189.989 184.39H184.39V189.989H189.989V184.39Z" fill="white"/>
<path d="M195.589 184.39H189.989V189.989H195.589V184.39Z" fill="white"/>
<path d="M201.188 184.39H195.589V189.989H201.188V184.39Z" fill="white"/>
<path d="M206.787 184.39H201.188V189.989H206.787V184.39Z" fill="white"/>
<path d="M212.386 184.39H206.787V189.989H212.386V184.39Z" fill="white"/>
<path d="M223.584 184.39H217.985V189.989H223.584V184.39Z" fill="white"/>
<path d="M229.183 184.39H223.584V189.989H229.183V184.39Z" fill="white"/>
<path d="M234.783 184.39H229.183V189.989H234.783V184.39Z" fill="white"/>
<path d="M55.6098 189.989H50.0106V195.589H55.6098V189.989Z" fill="white"/>
<path d="M66.8081 189.989H61.2089V195.589H66.8081V189.989Z" fill="white"/>
<path d="M78.0064 189.989H72.4072V195.589H78.0064V189.989Z" fill="white"/>
<path d="M89.2047 189.989H83.6055V195.589H89.2047V189.989Z" fill="white"/>
<path d="M94.8038 189.989H89.2047V195.589H94.8038V189.989Z" fill="white"/>
<path d="M100.403 189.989H94.8038V195.589H100.403V189.989Z" fill="white"/>
<path d="M106.002 189.989H100.403V195.589H106.002V189.989Z" fill="white"/>
<path d="M111.601 189.989H106.002V195.589H111.601V189.989Z" fill="white"/>
<path d="M128.399 189.989H122.8V195.589H128.399V189.989Z" fill="white"/>
<path d="M133.998 189.989H128.399V195.589H133.998V189.989Z" fill="white"/>
<path d="M156.394 189.989H150.795V195.589H156.394V189.989Z" fill="white"/>
<path d="M173.192 189.989H167.593V195.589H173.192V189.989Z" fill="white"/>
<path d="M178.791 189.989H173.192V195.589H178.791V189.989Z" fill="white"/>
<path d="M189.989 189.989H184.39V195.589H189.989V189.989Z" fill="white"/>
<path d="M212.386 189.989H206.787V195.589H212.386V189.989Z" fill="white"/>
<path d="M217.985 189.989H212.386V195.589H217.985V189.989Z" fill="white"/>
<path d="M229.183 189.989H223.584V195.589H229.183V189.989Z" fill="white"/>
<path d="M234.783 189.989H229.183V195.589H234.783V189.989Z" fill="white"/>
<path d="M55.6098 195.589H50.0106V201.188H55.6098V195.589Z" fill="white"/>
<path d="M61.2089 195.589H55.6098V201.188H61.2089V195.589Z" fill="white"/>
<path d="M66.8081 195.589H61.2089V201.188H66.8081V195.589Z" fill="white"/>
<path d="M89.2047 195.589H83.6055V201.188H89.2047V195.589Z" fill="white"/>
<path d="M94.8038 195.589H89.2047V201.188H94.8038V195.589Z" fill="white"/>
<path d="M117.2 195.589H111.601V201.188H117.2V195.589Z" fill="white"/>
<path d="M122.8 195.589H117.2V201.188H122.8V195.589Z" fill="white"/>
<path d="M145.196 195.589H139.597V201.188H145.196V195.589Z" fill="white"/>
<path d="M167.593 195.589H161.994V201.188H167.593V195.589Z" fill="white"/>
<path d="M173.192 195.589H167.593V201.188H173.192V195.589Z" fill="white"/>
<path d="M178.791 195.589H173.192V201.188H178.791V195.589Z" fill="white"/>
<path d="M189.989 195.589H184.39V201.188H189.989V195.589Z" fill="white"/>
<path d="M201.188 195.589H195.589V201.188H201.188V195.589Z" fill="white"/>
<path d="M212.386 195.589H206.787V201.188H212.386V195.589Z" fill="white"/>
<path d="M217.985 195.589H212.386V201.188H217.985V195.589Z" fill="white"/>
<path d="M229.183 195.589H223.584V201.188H229.183V195.589Z" fill="white"/>
<path d="M55.6098 201.188H50.0106V206.787H55.6098V201.188Z" fill="white"/>
<path d="M66.8081 201.188H61.2089V206.787H66.8081V201.188Z" fill="white"/>
<path d="M78.0064 201.188H72.4072V206.787H78.0064V201.188Z" fill="white"/>
<path d="M83.6055 201.188H78.0064V206.787H83.6055V201.188Z" fill="white"/>
<path d="M94.8038 201.188H89.2047V206.787H94.8038V201.188Z" fill="white"/>
<path d="M100.403 201.188H94.8038V206.787H100.403V201.188Z" fill="white"/>
<path d="M106.002 201.188H100.403V206.787H106.002V201.188Z" fill="white"/>
<path d="M111.601 201.188H106.002V206.787H111.601V201.188Z" fill="white"/>
<path d="M122.8 201.188H117.2V206.787H122.8V201.188Z" fill="white"/>
<path d="M139.597 201.188H133.998V206.787H139.597V201.188Z" fill="white"/>
<path d="M145.196 201.188H139.597V206.787H145.196V201.188Z" fill="white"/>
<path d="M156.394 201.188H150.795V206.787H156.394V201.188Z" fill="white"/>
<path d="M167.593 201.188H161.994V206.787H167.593V201.188Z" fill="white"/>
<path d="M178.791 201.188H173.192V206.787H178.791V201.188Z" fill="white"/>
<path d="M189.989 201.188H184.39V206.787H189.989V201.188Z" fill="white"/>
<path d="M212.386 201.188H206.787V206.787H212.386V201.188Z" fill="white"/>
<path d="M223.584 201.188H217.985V206.787H223.584V201.188Z" fill="white"/>
<path d="M229.183 201.188H223.584V206.787H229.183V201.188Z" fill="white"/>
<path d="M66.8081 206.787H61.2089V212.386H66.8081V206.787Z" fill="white"/>
<path d="M72.4072 206.787H66.8081V212.386H72.4072V206.787Z" fill="white"/>
<path d="M83.6055 206.787H78.0064V212.386H83.6055V206.787Z" fill="white"/>
<path d="M94.8038 206.787H89.2047V212.386H94.8038V206.787Z" fill="white"/>
<path d="M106.002 206.787H100.403V212.386H106.002V206.787Z" fill="white"/>
<path d="M117.2 206.787H111.601V212.386H117.2V206.787Z" fill="white"/>
<path d="M122.8 206.787H117.2V212.386H122.8V206.787Z" fill="white"/>
<path d="M133.998 206.787H128.399V212.386H133.998V206.787Z" fill="white"/>
<path d="M145.196 206.787H139.597V212.386H145.196V206.787Z" fill="white"/>
<path d="M161.994 206.787H156.394V212.386H161.994V206.787Z" fill="white"/>
<path d="M167.593 206.787H161.994V212.386H167.593V206.787Z" fill="white"/>
<path d="M173.192 206.787H167.593V212.386H173.192V206.787Z" fill="white"/>
<path d="M189.989 206.787H184.39V212.386H189.989V206.787Z" fill="white"/>
<path d="M195.589 206.787H189.989V212.386H195.589V206.787Z" fill="white"/>
<path d="M201.188 206.787H195.589V212.386H201.188V206.787Z" fill="white"/>
<path d="M206.787 206.787H201.188V212.386H206.787V206.787Z" fill="white"/>
<path d="M212.386 206.787H206.787V212.386H212.386V206.787Z" fill="white"/>
<path d="M229.183 206.787H223.584V212.386H229.183V206.787Z" fill="white"/>
<path d="M55.6098 212.386H50.0106V217.985H55.6098V212.386Z" fill="white"/>
<path d="M61.2089 212.386H55.6098V217.985H61.2089V212.386Z" fill="white"/>
<path d="M66.8081 212.386H61.2089V217.985H66.8081V212.386Z" fill="white"/>
<path d="M72.4072 212.386H66.8081V217.985H72.4072V212.386Z" fill="white"/>
<path d="M78.0064 212.386H72.4072V217.985H78.0064V212.386Z" fill="white"/>
<path d="M94.8038 212.386H89.2047V217.985H94.8038V212.386Z" fill="white"/>
<path d="M111.601 212.386H106.002V217.985H111.601V212.386Z" fill="white"/>
<path d="M145.196 212.386H139.597V217.985H145.196V212.386Z" fill="white"/>
<path d="M150.795 212.386H145.196V217.985H150.795V212.386Z" fill="white"/>
<path d="M184.39 212.386H178.791V217.985H184.39V212.386Z" fill="white"/>
<path d="M195.589 212.386H189.989V217.985H195.589V212.386Z" fill="white"/>
<path d="M201.188 212.386H195.589V217.985H201.188V212.386Z" fill="white"/>
<path d="M212.386 212.386H206.787V217.985H212.386V212.386Z" fill="white"/>
<path d="M223.584 212.386H217.985V217.985H223.584V212.386Z" fill="white"/>
<path d="M229.183 212.386H223.584V217.985H229.183V212.386Z" fill="white"/>
<path d="M234.783 212.386H229.183V217.985H234.783V212.386Z" fill="white"/>
<path d="M66.8081 217.985H61.2089V223.584H66.8081V217.985Z" fill="white"/>
<path d="M72.4072 217.985H66.8081V223.584H72.4072V217.985Z" fill="white"/>
<path d="M83.6055 217.985H78.0064V223.584H83.6055V217.985Z" fill="white"/>
<path d="M89.2047 217.985H83.6055V223.584H89.2047V217.985Z" fill="white"/>
<path d="M100.403 217.985H94.8038V223.584H100.403V217.985Z" fill="white"/>
<path d="M106.002 217.985H100.403V223.584H106.002V217.985Z" fill="white"/>
<path d="M128.399 217.985H122.8V223.584H128.399V217.985Z" fill="white"/>
<path d="M139.597 217.985H133.998V223.584H139.597V217.985Z" fill="white"/>
<path d="M145.196 217.985H139.597V223.584H145.196V217.985Z" fill="white"/>
<path d="M150.795 217.985H145.196V223.584H150.795V217.985Z" fill="white"/>
<path d="M156.394 217.985H150.795V223.584H156.394V217.985Z" fill="white"/>
<path d="M167.593 217.985H161.994V223.584H167.593V217.985Z" fill="white"/>
<path d="M173.192 217.985H167.593V223.584H173.192V217.985Z" fill="white"/>
<path d="M184.39 217.985H178.791V223.584H184.39V217.985Z" fill="white"/>
<path d="M212.386 217.985H206.787V223.584H212.386V217.985Z" fill="white"/>
<path d="M229.183 217.985H223.584V223.584H229.183V217.985Z" fill="white"/>
<path d="M234.783 217.985H229.183V223.584H234.783V217.985Z" fill="white"/>
<path d="M55.6098 223.584H50.0106V229.183H55.6098V223.584Z" fill="white"/>
<path d="M61.2089 223.584H55.6098V229.183H61.2089V223.584Z" fill="white"/>
<path d="M94.8038 223.584H89.2047V229.183H94.8038V223.584Z" fill="white"/>
<path d="M100.403 223.584H94.8038V229.183H100.403V223.584Z" fill="white"/>
<path d="M122.8 223.584H117.2V229.183H122.8V223.584Z" fill="white"/>
<path d="M133.998 223.584H128.399V229.183H133.998V223.584Z" fill="white"/>
<path d="M145.196 223.584H139.597V229.183H145.196V223.584Z" fill="white"/>
<path d="M150.795 223.584H145.196V229.183H150.795V223.584Z" fill="white"/>
<path d="M161.994 223.584H156.394V229.183H161.994V223.584Z" fill="white"/>
<path d="M167.593 223.584H161.994V229.183H167.593V223.584Z" fill="white"/>
<path d="M173.192 223.584H167.593V229.183H173.192V223.584Z" fill="white"/>
<path d="M178.791 223.584H173.192V229.183H178.791V223.584Z" fill="white"/>
<path d="M184.39 223.584H178.791V229.183H184.39V223.584Z" fill="white"/>
<path d="M189.989 223.584H184.39V229.183H189.989V223.584Z" fill="white"/>
<path d="M206.787 223.584H201.188V229.183H206.787V223.584Z" fill="white"/>
<path d="M217.985 223.584H212.386V229.183H217.985V223.584Z" fill="white"/>
<path d="M229.183 223.584H223.584V229.183H229.183V223.584Z" fill="white"/>
<path d="M61.2089 229.183H55.6098V234.783H61.2089V229.183Z" fill="white"/>
<path d="M72.4072 229.183H66.8081V234.783H72.4072V229.183Z" fill="white"/>
<path d="M78.0064 229.183H72.4072V234.783H78.0064V229.183Z" fill="white"/>
<path d="M89.2047 229.183H83.6055V234.783H89.2047V229.183Z" fill="white"/>
<path d="M117.2 229.183H111.601V234.783H117.2V229.183Z" fill="white"/>
<path d="M133.998 229.183H128.399V234.783H133.998V229.183Z" fill="white"/>
<path d="M139.597 229.183H133.998V234.783H139.597V229.183Z" fill="white"/>
<path d="M145.196 229.183H139.597V234.783H145.196V229.183Z" fill="white"/>
<path d="M173.192 229.183H167.593V234.783H173.192V229.183Z" fill="white"/>
<path d="M184.39 229.183H178.791V234.783H184.39V229.183Z" fill="white"/>
<path d="M189.989 229.183H184.39V234.783H189.989V229.183Z" fill="white"/>
<path d="M195.589 229.183H189.989V234.783H195.589V229.183Z" fill="white"/>
<path d="M206.787 229.183H201.188V234.783H206.787V229.183Z" fill="white"/>
<path d="M212.386 229.183H206.787V234.783H212.386V229.183Z" fill="white"/>
<path d="M229.183 229.183H223.584V234.783H229.183V229.183Z" fill="white"/>
</mask>
<g mask="url(#mask1_32_1611)">
<path d="M240 0H0V240H240V0Z" fill="black"/>
</g>
<mask id="mask2_32_1611" style="mask-type:luminance" maskUnits="userSpaceOnUse" x="5" y="5" width="40" height="40">
<path fill-rule="evenodd" clip-rule="evenodd" d="M5.21739 5.21738V44.4114H44.4115V5.21738H5.21739ZM10.8165 10.8165H38.8123V38.8123H10.8165V10.8165Z" fill="white"/>
</mask>
<g mask="url(#mask2_32_1611)">
<path d="M44.4115 5.21738H5.21739V44.4114H44.4115V5.21738Z" fill="black"/>
</g>
<mask id="mask3_32_1611" style="mask-type:luminance" maskUnits="userSpaceOnUse" x="16" y="16" width="18" height="18">
<path d="M33.2132 16.4157H16.4157V33.2132H33.2132V16.4157Z" fill="white"/>
</mask>
<g mask="url(#mask3_32_1611)">
<path d="M33.2132 16.4157H16.4157V33.2132H33.2132V16.4157Z" fill="black"/>
</g>
<mask id="mask4_32_1611" style="mask-type:luminance" maskUnits="userSpaceOnUse" x="195" y="5" width="40" height="40">
<path fill-rule="evenodd" clip-rule="evenodd" d="M234.783 5.21741L195.589 5.21741V44.4115H234.783V5.21741ZM229.183 10.8165V38.8123H201.188V10.8165L229.183 10.8165Z" fill="white"/>
</mask>
<g mask="url(#mask4_32_1611)">
<path d="M234.783 5.21741H195.589V44.4115H234.783V5.21741Z" fill="black"/>
</g>
<mask id="mask5_32_1611" style="mask-type:luminance" maskUnits="userSpaceOnUse" x="206" y="16" width="18" height="18">
<path d="M223.584 33.2131V16.4157H206.787V33.2131H223.584Z" fill="white"/>
</mask>
<g mask="url(#mask5_32_1611)">
<path d="M223.584 16.4157H206.787V33.2131H223.584V16.4157Z" fill="black"/>
</g>
<mask id="mask6_32_1611" style="mask-type:luminance" maskUnits="userSpaceOnUse" x="5" y="195" width="40" height="40">
<path fill-rule="evenodd" clip-rule="evenodd" d="M5.21739 234.783H44.4115V195.589H5.21739L5.21739 234.783ZM10.8165 229.183L10.8165 201.188H38.8123V229.183H10.8165Z" fill="white"/>
</mask>
<g mask="url(#mask6_32_1611)">
<path d="M44.4115 195.589H5.21739V234.783H44.4115V195.589Z" fill="black"/>
</g>
<mask id="mask7_32_1611" style="mask-type:luminance" maskUnits="userSpaceOnUse" x="16" y="206" width="18" height="18">
<path d="M16.4157 206.787V223.584H33.2132V206.787H16.4157Z" fill="white"/>
</mask>
<g mask="url(#mask7_32_1611)">
<path d="M33.2131 206.787H16.4157V223.584H33.2131V206.787Z" fill="black"/>
</g>
</svg>
